<svg width="44" height="44" viewBox="0 0 44 44" fill="none" xmlns="http://www.w3.org/2000/svg">
<path d="M31.1663 3.66675H9.16634C8.68011 3.66675 8.2138 3.8599 7.86998 4.20372C7.52616 4.54754 7.33301 5.01385 7.33301 5.50008V34.8334C7.33301 35.3196 7.52616 35.786 7.86998 36.1298C8.2138 36.4736 8.68011 36.6667 9.16634 36.6667H10.9997V38.5001C10.9997 38.9863 11.1928 39.4526 11.5366 39.7964C11.8805 40.1403 12.3468 40.3334 12.833 40.3334C13.3192 40.3334 13.7856 40.1403 14.1294 39.7964C14.4732 39.4526 14.6663 38.9863 14.6663 38.5001V36.6667H31.1663C32.625 36.6667 34.024 36.0873 35.0554 35.0558C36.0869 34.0244 36.6663 32.6254 36.6663 31.1667V9.16675C36.6663 7.70806 36.0869 6.30911 35.0554 5.27766C34.024 4.24621 32.625 3.66675 31.1663 3.66675ZM25.6663 33.0001H10.9997V7.33341H25.6663V33.0001ZM32.9997 31.1667C32.9997 31.653 32.8065 32.1193 32.4627 32.4631C32.1189 32.8069 31.6526 33.0001 31.1663 33.0001H29.333V7.33341H31.1663C31.6526 7.33341 32.1189 7.52657 32.4627 7.87039C32.8065 8.2142 32.9997 8.68052 32.9997 9.16675V31.1667Z" fill="#162055"/>
</svg>
