<svg width="60" height="60" viewBox="0 0 60 60" fill="none" xmlns="http://www.w3.org/2000/svg">
<g clip-path="url(#clip0_516_584)">
<rect width="60" height="60" rx="30" fill="url(#paint0_linear_516_584)"/>
<path d="M39.8358 25.6174C54.1238 13.9124 40.6387 3.20624 26.1519 8.9083C24.6022 9.51836 20.3078 7.07619 16.3298 9.64903C13.7637 11.3087 14.7623 12.6094 13.7631 13.9101C12.764 15.2108 8.91177 15.1342 8.06787 18.5116C7.56807 20.5126 8.95117 22.6085 8.76618 24.1146C8.58118 25.6206 7.1207 26.9782 7.05104 28.9664C7.02089 29.8061 7.15646 30.6436 7.45001 31.4309C7.74356 32.2183 8.18934 32.9401 8.76189 33.5551C9.33445 34.1701 10.0226 34.6664 10.7869 35.0154C11.5513 35.3645 12.3769 35.5595 13.2167 35.5895C13.2235 37.2496 13.8717 38.8428 15.0258 40.0362C16.1799 41.2295 17.7506 41.9306 19.4096 41.993C20.5123 42.0317 23.3043 42.032 25.7035 40.5848C31.7155 36.9591 30.3665 33.3743 39.8358 25.6174Z" fill="#9ED1ED"/>
<path d="M24.9989 38.7998C24.9989 36.9998 24.9377 28.1214 24.9407 27.9714C19.9989 28.6998 20.0989 19.2998 25.0989 21.5998C26.1989 22.2998 29.2989 21.5998 28.9989 15.7998C34.3989 21.5998 40.6683 14.835 41.2059 20.3474C41.9401 27.8744 41.2015 35.7516 36.5237 35.7522C36.012 35.746 35.5018 35.695 34.9989 35.5998V38.7998C34.9989 40.7998 38.5989 41.7998 38.5989 41.7998C38.5989 41.7998 32.3805 47.6598 29.7989 47.6274C27.2173 47.595 21.3989 41.7998 21.3989 41.7998C21.3989 41.7998 24.9989 40.7998 24.9989 38.7998Z" fill="#F7F1F7"/>
<path d="M35 35.5989C32.5187 35.0486 30.1676 34.0232 28.0762 32.5791C28.0762 32.5791 29.8018 36.7977 34.9935 37.5981L35 35.5989Z" fill="#17021C"/>
<path d="M48.3984 47.7998C49.8494 51.0242 50.5984 60.7998 50.5984 60.7998H9.39844C9.39844 60.7998 10.1474 51.0242 11.5984 47.7998C12.8696 44.9752 21.2462 41.732 23.701 40.7998C25.1184 42.3854 27.1496 43.3998 29.9984 43.3998C32.8472 43.3998 34.8784 42.3854 36.2958 40.7998C38.7506 41.732 47.1272 44.9752 48.3984 47.7998Z" fill="#ECB4E5"/>
<mask id="mask0_516_584" style="mask-type:alpha" maskUnits="userSpaceOnUse" x="9" y="40" width="42" height="21">
<path d="M48.3984 47.7998C49.8494 51.0242 50.5984 60.7998 50.5984 60.7998H9.39844C9.39844 60.7998 10.1474 51.0242 11.5984 47.7998C12.8696 44.9752 21.2462 41.732 23.701 40.7998C25.1184 42.3854 27.1496 43.3998 29.9984 43.3998C32.8472 43.3998 34.8784 42.3854 36.2958 40.7998C38.7506 41.732 47.1272 44.9752 48.3984 47.7998Z" fill="url(#paint1_linear_516_584)"/>
</mask>
<g mask="url(#mask0_516_584)">
<path d="M48.7988 58.8001C48.7988 58.5628 48.8692 58.3307 49.0011 58.1334C49.1329 57.9361 49.3203 57.7823 49.5396 57.6914C49.7589 57.6006 50.0002 57.5768 50.2329 57.6231C50.4657 57.6695 50.6795 57.7837 50.8474 57.9516C51.0152 58.1194 51.1295 58.3332 51.1758 58.566C51.2221 58.7988 51.1983 59.04 51.1075 59.2593C51.0167 59.4786 50.8629 59.666 50.6655 59.7979C50.4682 59.9297 50.2362 60.0001 49.9988 60.0001C49.6806 60.0001 49.3753 59.8737 49.1503 59.6486C48.9253 59.4236 48.7988 59.1184 48.7988 58.8001V58.8001ZM40.7988 58.8001C40.7988 58.5628 40.8692 58.3307 41.0011 58.1334C41.1329 57.9361 41.3203 57.7823 41.5396 57.6914C41.7589 57.6006 42.0002 57.5768 42.2329 57.6231C42.4657 57.6695 42.6795 57.7837 42.8474 57.9516C43.0152 58.1194 43.1295 58.3332 43.1758 58.566C43.2221 58.7988 43.1983 59.04 43.1075 59.2593C43.0167 59.4786 42.8629 59.666 42.6655 59.7979C42.4682 59.9297 42.2362 60.0001 41.9988 60.0001C41.6806 60.0001 41.3753 59.8737 41.1503 59.6486C40.9253 59.4236 40.7988 59.1184 40.7988 58.8001ZM32.7988 58.8001C32.7988 58.5628 32.8692 58.3307 33.0011 58.1334C33.1329 57.9361 33.3203 57.7823 33.5396 57.6914C33.7589 57.6006 34.0002 57.5768 34.2329 57.6231C34.4657 57.6695 34.6795 57.7837 34.8474 57.9516C35.0152 58.1194 35.1295 58.3332 35.1758 58.566C35.2221 58.7988 35.1983 59.04 35.1075 59.2593C35.0167 59.4786 34.8629 59.666 34.6655 59.7979C34.4682 59.9297 34.2362 60.0001 33.9988 60.0001C33.6806 60.0001 33.3753 59.8737 33.1503 59.6486C32.9253 59.4236 32.7988 59.1184 32.7988 58.8001ZM24.7988 58.8001C24.7988 58.5628 24.8692 58.3307 25.0011 58.1334C25.1329 57.9361 25.3203 57.7823 25.5396 57.6914C25.7589 57.6006 26.0002 57.5768 26.2329 57.6231C26.4657 57.6695 26.6795 57.7837 26.8474 57.9516C27.0152 58.1194 27.1295 58.3332 27.1758 58.566C27.2221 58.7988 27.1983 59.04 27.1075 59.2593C27.0167 59.4786 26.8629 59.666 26.6655 59.7979C26.4682 59.9297 26.2362 60.0001 25.9988 60.0001C25.6806 60.0001 25.3753 59.8737 25.1503 59.6486C24.9253 59.4236 24.7988 59.1184 24.7988 58.8001ZM16.7988 58.8001C16.7988 58.5628 16.8692 58.3307 17.0011 58.1334C17.1329 57.9361 17.3203 57.7823 17.5396 57.6914C17.7589 57.6006 18.0002 57.5768 18.2329 57.6231C18.4657 57.6695 18.6795 57.7837 18.8474 57.9516C19.0152 58.1194 19.1295 58.3332 19.1758 58.566C19.2221 58.7988 19.1983 59.04 19.1075 59.2593C19.0167 59.4786 18.8629 59.666 18.6655 59.7979C18.4682 59.9297 18.2362 60.0001 17.9988 60.0001C17.6806 60.0001 17.3753 59.8737 17.1503 59.6486C16.9253 59.4236 16.7988 59.1184 16.7988 58.8001ZM8.79883 58.8001C8.79883 58.5628 8.86921 58.3307 9.00106 58.1334C9.13292 57.9361 9.32034 57.7823 9.53961 57.6914C9.75888 57.6006 10.0002 57.5768 10.2329 57.6231C10.4657 57.6695 10.6795 57.7837 10.8474 57.9516C11.0152 58.1194 11.1295 58.3332 11.1758 58.566C11.2221 58.7988 11.1983 59.04 11.1075 59.2593C11.0167 59.4786 10.8629 59.666 10.6655 59.7979C10.4682 59.9297 10.2362 60.0001 9.99883 60.0001C9.68057 60.0001 9.37534 59.8737 9.1503 59.6486C8.92526 59.4236 8.79883 59.1184 8.79883 58.8001V58.8001ZM44.7988 54.8001C44.7988 54.5628 44.8692 54.3307 45.0011 54.1334C45.1329 53.9361 45.3203 53.7823 45.5396 53.6914C45.7589 53.6006 46.0002 53.5768 46.2329 53.6232C46.4657 53.6695 46.6795 53.7837 46.8474 53.9516C47.0152 54.1194 47.1295 54.3332 47.1758 54.566C47.2221 54.7988 47.1983 55.04 47.1075 55.2593C47.0167 55.4786 46.8629 55.666 46.6655 55.7979C46.4682 55.9297 46.2362 56.0001 45.9988 56.0001C45.6806 56.0001 45.3753 55.8737 45.1503 55.6486C44.9253 55.4236 44.7988 55.1184 44.7988 54.8001ZM36.7988 54.8001C36.7988 54.5628 36.8692 54.3307 37.0011 54.1334C37.1329 53.9361 37.3203 53.7823 37.5396 53.6914C37.7589 53.6006 38.0002 53.5768 38.2329 53.6232C38.4657 53.6695 38.6795 53.7837 38.8474 53.9516C39.0152 54.1194 39.1295 54.3332 39.1758 54.566C39.2221 54.7988 39.1983 55.04 39.1075 55.2593C39.0167 55.4786 38.8629 55.666 38.6655 55.7979C38.4682 55.9297 38.2362 56.0001 37.9988 56.0001C37.6806 56.0001 37.3753 55.8737 37.1503 55.6486C36.9253 55.4236 36.7988 55.1184 36.7988 54.8001ZM28.7988 54.8001C28.7988 54.5628 28.8692 54.3307 29.0011 54.1334C29.1329 53.9361 29.3203 53.7823 29.5396 53.6914C29.7589 53.6006 30.0002 53.5768 30.2329 53.6232C30.4657 53.6695 30.6795 53.7837 30.8474 53.9516C31.0152 54.1194 31.1295 54.3332 31.1758 54.566C31.2221 54.7988 31.1983 55.04 31.1075 55.2593C31.0167 55.4786 30.8629 55.666 30.6655 55.7979C30.4682 55.9297 30.2362 56.0001 29.9988 56.0001C29.6806 56.0001 29.3753 55.8737 29.1503 55.6486C28.9253 55.4236 28.7988 55.1184 28.7988 54.8001V54.8001ZM20.7988 54.8001C20.7988 54.5628 20.8692 54.3307 21.0011 54.1334C21.1329 53.9361 21.3203 53.7823 21.5396 53.6914C21.7589 53.6006 22.0002 53.5768 22.2329 53.6232C22.4657 53.6695 22.6795 53.7837 22.8474 53.9516C23.0152 54.1194 23.1295 54.3332 23.1758 54.566C23.2221 54.7988 23.1983 55.04 23.1075 55.2593C23.0167 55.4786 22.8629 55.666 22.6655 55.7979C22.4682 55.9297 22.2362 56.0001 21.9988 56.0001C21.6806 56.0001 21.3753 55.8737 21.1503 55.6486C20.9253 55.4236 20.7988 55.1184 20.7988 54.8001ZM12.7988 54.8001C12.7988 54.5628 12.8692 54.3307 13.0011 54.1334C13.1329 53.9361 13.3203 53.7823 13.5396 53.6914C13.7589 53.6006 14.0002 53.5768 14.2329 53.6232C14.4657 53.6695 14.6795 53.7837 14.8474 53.9516C15.0152 54.1194 15.1295 54.3332 15.1758 54.566C15.2221 54.7988 15.1983 55.04 15.1075 55.2593C15.0167 55.4786 14.8629 55.666 14.6655 55.7979C14.4682 55.9297 14.2362 56.0001 13.9988 56.0001C13.6806 56.0001 13.3753 55.8737 13.1503 55.6486C12.9253 55.4236 12.7988 55.1184 12.7988 54.8001ZM48.7988 50.8001C48.7988 50.5628 48.8692 50.3308 49.0011 50.1334C49.1329 49.9361 49.3203 49.7823 49.5396 49.6914C49.7589 49.6006 50.0002 49.5769 50.2329 49.6232C50.4657 49.6695 50.6795 49.7837 50.8474 49.9516C51.0152 50.1194 51.1295 50.3332 51.1758 50.566C51.2221 50.7988 51.1983 51.04 51.1075 51.2593C51.0167 51.4786 50.8629 51.666 50.6655 51.7979C50.4682 51.9297 50.2362 52.0001 49.9988 52.0001C49.6806 52.0001 49.3753 51.8737 49.1503 51.6486C48.9253 51.4236 48.7988 51.1184 48.7988 50.8001V50.8001ZM40.7988 50.8001C40.7988 50.5628 40.8692 50.3308 41.0011 50.1334C41.1329 49.9361 41.3203 49.7823 41.5396 49.6914C41.7589 49.6006 42.0002 49.5769 42.2329 49.6232C42.4657 49.6695 42.6795 49.7837 42.8474 49.9516C43.0152 50.1194 43.1295 50.3332 43.1758 50.566C43.2221 50.7988 43.1983 51.04 43.1075 51.2593C43.0167 51.4786 42.8629 51.666 42.6655 51.7979C42.4682 51.9297 42.2362 52.0001 41.9988 52.0001C41.6806 52.0001 41.3753 51.8737 41.1503 51.6486C40.9253 51.4236 40.7988 51.1184 40.7988 50.8001ZM32.7988 50.8001C32.7988 50.5628 32.8692 50.3308 33.0011 50.1334C33.1329 49.9361 33.3203 49.7823 33.5396 49.6914C33.7589 49.6006 34.0002 49.5769 34.2329 49.6232C34.4657 49.6695 34.6795 49.7837 34.8474 49.9516C35.0152 50.1194 35.1295 50.3332 35.1758 50.566C35.2221 50.7988 35.1983 51.04 35.1075 51.2593C35.0167 51.4786 34.8629 51.666 34.6655 51.7979C34.4682 51.9297 34.2362 52.0001 33.9988 52.0001C33.6806 52.0001 33.3753 51.8737 33.1503 51.6486C32.9253 51.4236 32.7988 51.1184 32.7988 50.8001ZM24.7988 50.8001C24.7988 50.5628 24.8692 50.3308 25.0011 50.1334C25.1329 49.9361 25.3203 49.7823 25.5396 49.6914C25.7589 49.6006 26.0002 49.5769 26.2329 49.6232C26.4657 49.6695 26.6795 49.7837 26.8474 49.9516C27.0152 50.1194 27.1295 50.3332 27.1758 50.566C27.2221 50.7988 27.1983 51.04 27.1075 51.2593C27.0167 51.4786 26.8629 51.666 26.6655 51.7979C26.4682 51.9297 26.2362 52.0001 25.9988 52.0001C25.6806 52.0001 25.3753 51.8737 25.1503 51.6486C24.9253 51.4236 24.7988 51.1184 24.7988 50.8001ZM16.7988 50.8001C16.7988 50.5628 16.8692 50.3308 17.0011 50.1334C17.1329 49.9361 17.3203 49.7823 17.5396 49.6914C17.7589 49.6006 18.0002 49.5769 18.2329 49.6232C18.4657 49.6695 18.6795 49.7837 18.8474 49.9516C19.0152 50.1194 19.1295 50.3332 19.1758 50.566C19.2221 50.7988 19.1983 51.04 19.1075 51.2593C19.0167 51.4786 18.8629 51.666 18.6655 51.7979C18.4682 51.9297 18.2362 52.0001 17.9988 52.0001C17.6806 52.0001 17.3753 51.8737 17.1503 51.6486C16.9253 51.4236 16.7988 51.1184 16.7988 50.8001ZM8.79883 50.8001C8.79883 50.5628 8.86921 50.3308 9.00106 50.1334C9.13292 49.9361 9.32034 49.7823 9.53961 49.6914C9.75888 49.6006 10.0002 49.5769 10.2329 49.6232C10.4657 49.6695 10.6795 49.7837 10.8474 49.9516C11.0152 50.1194 11.1295 50.3332 11.1758 50.566C11.2221 50.7988 11.1983 51.04 11.1075 51.2593C11.0167 51.4786 10.8629 51.666 10.6655 51.7979C10.4682 51.9297 10.2362 52.0001 9.99883 52.0001C9.68057 52.0001 9.37534 51.8737 9.1503 51.6486C8.92526 51.4236 8.79883 51.1184 8.79883 50.8001V50.8001ZM44.7988 46.8001C44.7988 46.5628 44.8692 46.3308 45.0011 46.1334C45.1329 45.9361 45.3203 45.7823 45.5396 45.6914C45.7589 45.6006 46.0002 45.5769 46.2329 45.6232C46.4657 45.6695 46.6795 45.7837 46.8474 45.9516C47.0152 46.1194 47.1295 46.3332 47.1758 46.566C47.2221 46.7988 47.1983 47.04 47.1075 47.2593C47.0167 47.4786 46.8629 47.666 46.6655 47.7979C46.4682 47.9297 46.2362 48.0001 45.9988 48.0001C45.6806 48.0001 45.3753 47.8737 45.1503 47.6486C44.9253 47.4236 44.7988 47.1184 44.7988 46.8001ZM36.7988 46.8001C36.7988 46.5628 36.8692 46.3308 37.0011 46.1334C37.1329 45.9361 37.3203 45.7823 37.5396 45.6914C37.7589 45.6006 38.0002 45.5769 38.2329 45.6232C38.4657 45.6695 38.6795 45.7837 38.8474 45.9516C39.0152 46.1194 39.1295 46.3332 39.1758 46.566C39.2221 46.7988 39.1983 47.04 39.1075 47.2593C39.0167 47.4786 38.8629 47.666 38.6655 47.7979C38.4682 47.9297 38.2362 48.0001 37.9988 48.0001C37.6806 48.0001 37.3753 47.8737 37.1503 47.6486C36.9253 47.4236 36.7988 47.1184 36.7988 46.8001ZM28.7988 46.8001C28.7988 46.5628 28.8692 46.3308 29.0011 46.1334C29.1329 45.9361 29.3203 45.7823 29.5396 45.6914C29.7589 45.6006 30.0002 45.5769 30.2329 45.6232C30.4657 45.6695 30.6795 45.7837 30.8474 45.9516C31.0152 46.1194 31.1295 46.3332 31.1758 46.566C31.2221 46.7988 31.1983 47.04 31.1075 47.2593C31.0167 47.4786 30.8629 47.666 30.6655 47.7979C30.4682 47.9297 30.2362 48.0001 29.9988 48.0001C29.6806 48.0001 29.3753 47.8737 29.1503 47.6486C28.9253 47.4236 28.7988 47.1184 28.7988 46.8001V46.8001ZM20.7988 46.8001C20.7988 46.5628 20.8692 46.3308 21.0011 46.1334C21.1329 45.9361 21.3203 45.7823 21.5396 45.6914C21.7589 45.6006 22.0002 45.5769 22.2329 45.6232C22.4657 45.6695 22.6795 45.7837 22.8474 45.9516C23.0152 46.1194 23.1295 46.3332 23.1758 46.566C23.2221 46.7988 23.1983 47.04 23.1075 47.2593C23.0167 47.4786 22.8629 47.666 22.6655 47.7979C22.4682 47.9297 22.2362 48.0001 21.9988 48.0001C21.6806 48.0001 21.3753 47.8737 21.1503 47.6486C20.9253 47.4236 20.7988 47.1184 20.7988 46.8001ZM12.7988 46.8001C12.7988 46.5628 12.8692 46.3308 13.0011 46.1334C13.1329 45.9361 13.3203 45.7823 13.5396 45.6914C13.7589 45.6006 14.0002 45.5769 14.2329 45.6232C14.4657 45.6695 14.6795 45.7837 14.8474 45.9516C15.0152 46.1194 15.1295 46.3332 15.1758 46.566C15.2221 46.7988 15.1983 47.04 15.1075 47.2593C15.0167 47.4786 14.8629 47.666 14.6655 47.7979C14.4682 47.9297 14.2362 48.0001 13.9988 48.0001C13.6806 48.0001 13.3753 47.8737 13.1503 47.6486C12.9253 47.4236 12.7988 47.1184 12.7988 46.8001ZM48.7988 42.8001C48.7988 42.5628 48.8692 42.3308 49.0011 42.1334C49.1329 41.9361 49.3203 41.7823 49.5396 41.6914C49.7589 41.6006 50.0002 41.5769 50.2329 41.6232C50.4657 41.6695 50.6795 41.7837 50.8474 41.9516C51.0152 42.1194 51.1295 42.3332 51.1758 42.566C51.2221 42.7988 51.1983 43.04 51.1075 43.2593C51.0167 43.4786 50.8629 43.666 50.6655 43.7979C50.4682 43.9297 50.2362 44.0001 49.9988 44.0001C49.6806 44.0001 49.3753 43.8737 49.1503 43.6486C48.9253 43.4236 48.7988 43.1184 48.7988 42.8001V42.8001ZM40.7988 42.8001C40.7988 42.5628 40.8692 42.3308 41.0011 42.1334C41.1329 41.9361 41.3203 41.7823 41.5396 41.6914C41.7589 41.6006 42.0002 41.5769 42.2329 41.6232C42.4657 41.6695 42.6795 41.7837 42.8474 41.9516C43.0152 42.1194 43.1295 42.3332 43.1758 42.566C43.2221 42.7988 43.1983 43.04 43.1075 43.2593C43.0167 43.4786 42.8629 43.666 42.6655 43.7979C42.4682 43.9297 42.2362 44.0001 41.9988 44.0001C41.6806 44.0001 41.3753 43.8737 41.1503 43.6486C40.9253 43.4236 40.7988 43.1184 40.7988 42.8001V42.8001ZM16.7988 42.8001C16.7988 42.5628 16.8692 42.3308 17.0011 42.1334C17.1329 41.9361 17.3203 41.7823 17.5396 41.6914C17.7589 41.6006 18.0002 41.5769 18.2329 41.6232C18.4657 41.6695 18.6795 41.7837 18.8474 41.9516C19.0152 42.1194 19.1295 42.3332 19.1758 42.566C19.2221 42.7988 19.1983 43.04 19.1075 43.2593C19.0167 43.4786 18.8629 43.666 18.6655 43.7979C18.4682 43.9297 18.2362 44.0001 17.9988 44.0001C17.6806 44.0001 17.3753 43.8737 17.1503 43.6486C16.9253 43.4236 16.7988 43.1184 16.7988 42.8001V42.8001ZM8.79883 42.8001C8.79883 42.5628 8.86921 42.3308 9.00106 42.1334C9.13292 41.9361 9.32034 41.7823 9.53961 41.6914C9.75888 41.6006 10.0002 41.5769 10.2329 41.6232C10.4657 41.6695 10.6795 41.7837 10.8474 41.9516C11.0152 42.1194 11.1295 42.3332 11.1758 42.566C11.2221 42.7988 11.1983 43.04 11.1075 43.2593C11.0167 43.4786 10.8629 43.666 10.6655 43.7979C10.4682 43.9297 10.2362 44.0001 9.99883 44.0001C9.68057 44.0001 9.37534 43.8737 9.1503 43.6486C8.92526 43.4236 8.79883 43.1184 8.79883 42.8001V42.8001Z" fill="#162055"/>
</g>
</g>
<defs>
<linearGradient id="paint0_linear_516_584" x1="30" y1="0" x2="30" y2="60" gradientUnits="userSpaceOnUse">
<stop stop-color="#1D0024"/>
<stop offset="1" stop-color="#100014"/>
</linearGradient>
<linearGradient id="paint1_linear_516_584" x1="29.9984" y1="40.7998" x2="29.9984" y2="60.7998" gradientUnits="userSpaceOnUse">
<stop stop-color="#FECBB5"/>
<stop offset="1" stop-color="#FED4C4"/>
</linearGradient>
<clipPath id="clip0_516_584">
<rect width="60" height="60" rx="30" fill="white"/>
</clipPath>
</defs>
</svg>
