<svg width="60" height="60" viewBox="0 0 60 60" fill="none" xmlns="http://www.w3.org/2000/svg">
<g clip-path="url(#clip0_516_560)">
<rect width="60" height="60" rx="30" fill="url(#paint0_linear_516_560)"/>
<path d="M48.3994 48.6C49.866 51.4 50.5994 61.6 50.5994 61.6H9.39941C9.39941 61.6 10.1328 51.4 11.5994 48.6C13.7994 44.4 29.9994 39 29.9994 39C29.9994 39 46.1994 44.4 48.3994 48.6Z" fill="#9ED1ED"/>
<path opacity="0.4" d="M48.7998 59.8001C48.7998 59.5628 48.8702 59.3308 49.002 59.1334C49.1339 58.9361 49.3213 58.7823 49.5406 58.6914C49.7599 58.6006 50.0011 58.5769 50.2339 58.6232C50.4667 58.6695 50.6805 58.7837 50.8483 58.9516C51.0162 59.1194 51.1304 59.3332 51.1767 59.566C51.223 59.7988 51.1993 60.04 51.1085 60.2593C51.0176 60.4786 50.8638 60.666 50.6665 60.7979C50.4692 60.9297 50.2371 61.0001 49.9998 61.0001C49.6815 61.0001 49.3763 60.8737 49.1513 60.6486C48.9262 60.4236 48.7998 60.1184 48.7998 59.8001V59.8001ZM40.7998 59.8001C40.7998 59.5628 40.8702 59.3308 41.002 59.1334C41.1339 58.9361 41.3213 58.7823 41.5406 58.6914C41.7599 58.6006 42.0011 58.5769 42.2339 58.6232C42.4667 58.6695 42.6805 58.7837 42.8483 58.9516C43.0162 59.1194 43.1304 59.3332 43.1767 59.566C43.223 59.7988 43.1993 60.04 43.1085 60.2593C43.0176 60.4786 42.8638 60.666 42.6665 60.7979C42.4692 60.9297 42.2371 61.0001 41.9998 61.0001C41.6815 61.0001 41.3763 60.8737 41.1513 60.6486C40.9262 60.4236 40.7998 60.1184 40.7998 59.8001ZM32.7998 59.8001C32.7998 59.5628 32.8702 59.3308 33.002 59.1334C33.1339 58.9361 33.3213 58.7823 33.5406 58.6914C33.7599 58.6006 34.0011 58.5769 34.2339 58.6232C34.4667 58.6695 34.6805 58.7837 34.8483 58.9516C35.0162 59.1194 35.1304 59.3332 35.1767 59.566C35.223 59.7988 35.1993 60.04 35.1085 60.2593C35.0176 60.4786 34.8638 60.666 34.6665 60.7979C34.4692 60.9297 34.2371 61.0001 33.9998 61.0001C33.6815 61.0001 33.3763 60.8737 33.1513 60.6486C32.9262 60.4236 32.7998 60.1184 32.7998 59.8001ZM24.7998 59.8001C24.7998 59.5628 24.8702 59.3308 25.002 59.1334C25.1339 58.9361 25.3213 58.7823 25.5406 58.6914C25.7599 58.6006 26.0011 58.5769 26.2339 58.6232C26.4667 58.6695 26.6805 58.7837 26.8483 58.9516C27.0162 59.1194 27.1304 59.3332 27.1767 59.566C27.223 59.7988 27.1993 60.04 27.1085 60.2593C27.0176 60.4786 26.8638 60.666 26.6665 60.7979C26.4691 60.9297 26.2371 61.0001 25.9998 61.0001C25.6815 61.0001 25.3763 60.8737 25.1513 60.6486C24.9262 60.4236 24.7998 60.1184 24.7998 59.8001ZM16.7998 59.8001C16.7998 59.5628 16.8702 59.3308 17.002 59.1334C17.1339 58.9361 17.3213 58.7823 17.5406 58.6914C17.7599 58.6006 18.0011 58.5769 18.2339 58.6232C18.4667 58.6695 18.6805 58.7837 18.8483 58.9516C19.0162 59.1194 19.1304 59.3332 19.1767 59.566C19.223 59.7988 19.1993 60.04 19.1085 60.2593C19.0176 60.4786 18.8638 60.666 18.6665 60.7979C18.4691 60.9297 18.2371 61.0001 17.9998 61.0001C17.6815 61.0001 17.3763 60.8737 17.1513 60.6486C16.9262 60.4236 16.7998 60.1184 16.7998 59.8001ZM8.7998 59.8001C8.7998 59.5628 8.87018 59.3308 9.00204 59.1334C9.1339 58.9361 9.32131 58.7823 9.54058 58.6914C9.75986 58.6006 10.0011 58.5769 10.2339 58.6232C10.4667 58.6695 10.6805 58.7837 10.8483 58.9516C11.0162 59.1194 11.1304 59.3332 11.1767 59.566C11.223 59.7988 11.1993 60.04 11.1085 60.2593C11.0176 60.4786 10.8638 60.666 10.6665 60.7979C10.4692 60.9297 10.2371 61.0001 9.9998 61.0001C9.68154 61.0001 9.37632 60.8737 9.15128 60.6486C8.92623 60.4236 8.7998 60.1184 8.7998 59.8001V59.8001ZM44.7998 55.8001C44.7998 55.5628 44.8702 55.3308 45.002 55.1334C45.1339 54.9361 45.3213 54.7823 45.5406 54.6914C45.7599 54.6006 46.0011 54.5769 46.2339 54.6232C46.4667 54.6695 46.6805 54.7837 46.8483 54.9516C47.0162 55.1194 47.1304 55.3332 47.1767 55.566C47.223 55.7988 47.1993 56.04 47.1085 56.2593C47.0176 56.4786 46.8638 56.666 46.6665 56.7979C46.4692 56.9297 46.2371 57.0001 45.9998 57.0001C45.6815 57.0001 45.3763 56.8737 45.1513 56.6486C44.9262 56.4236 44.7998 56.1184 44.7998 55.8001ZM36.7998 55.8001C36.7998 55.5628 36.8702 55.3308 37.002 55.1334C37.1339 54.9361 37.3213 54.7823 37.5406 54.6914C37.7599 54.6006 38.0011 54.5769 38.2339 54.6232C38.4667 54.6695 38.6805 54.7837 38.8483 54.9516C39.0162 55.1194 39.1304 55.3332 39.1767 55.566C39.223 55.7988 39.1993 56.04 39.1085 56.2593C39.0176 56.4786 38.8638 56.666 38.6665 56.7979C38.4692 56.9297 38.2371 57.0001 37.9998 57.0001C37.6815 57.0001 37.3763 56.8737 37.1513 56.6486C36.9262 56.4236 36.7998 56.1184 36.7998 55.8001ZM28.7998 55.8001C28.7998 55.5628 28.8702 55.3308 29.002 55.1334C29.1339 54.9361 29.3213 54.7823 29.5406 54.6914C29.7599 54.6006 30.0011 54.5769 30.2339 54.6232C30.4667 54.6695 30.6805 54.7837 30.8483 54.9516C31.0162 55.1194 31.1304 55.3332 31.1767 55.566C31.223 55.7988 31.1993 56.04 31.1085 56.2593C31.0176 56.4786 30.8638 56.666 30.6665 56.7979C30.4691 56.9297 30.2371 57.0001 29.9998 57.0001C29.6815 57.0001 29.3763 56.8737 29.1513 56.6486C28.9262 56.4236 28.7998 56.1184 28.7998 55.8001V55.8001ZM20.7998 55.8001C20.7998 55.5628 20.8702 55.3308 21.002 55.1334C21.1339 54.9361 21.3213 54.7823 21.5406 54.6914C21.7599 54.6006 22.0011 54.5769 22.2339 54.6232C22.4667 54.6695 22.6805 54.7837 22.8483 54.9516C23.0162 55.1194 23.1304 55.3332 23.1767 55.566C23.223 55.7988 23.1993 56.04 23.1085 56.2593C23.0176 56.4786 22.8638 56.666 22.6665 56.7979C22.4691 56.9297 22.2371 57.0001 21.9998 57.0001C21.6815 57.0001 21.3763 56.8737 21.1513 56.6486C20.9262 56.4236 20.7998 56.1184 20.7998 55.8001ZM12.7998 55.8001C12.7998 55.5628 12.8702 55.3308 13.002 55.1334C13.1339 54.9361 13.3213 54.7823 13.5406 54.6914C13.7599 54.6006 14.0011 54.5769 14.2339 54.6232C14.4667 54.6695 14.6805 54.7837 14.8483 54.9516C15.0162 55.1194 15.1304 55.3332 15.1767 55.566C15.223 55.7988 15.1993 56.04 15.1085 56.2593C15.0176 56.4786 14.8638 56.666 14.6665 56.7979C14.4692 56.9297 14.2371 57.0001 13.9998 57.0001C13.6815 57.0001 13.3763 56.8737 13.1513 56.6486C12.9262 56.4236 12.7998 56.1184 12.7998 55.8001ZM48.7998 51.8001C48.7998 51.5628 48.8702 51.3308 49.002 51.1334C49.1339 50.9361 49.3213 50.7823 49.5406 50.6914C49.7599 50.6006 50.0011 50.5769 50.2339 50.6232C50.4667 50.6695 50.6805 50.7837 50.8483 50.9516C51.0162 51.1194 51.1304 51.3332 51.1767 51.566C51.223 51.7988 51.1993 52.04 51.1085 52.2593C51.0176 52.4786 50.8638 52.666 50.6665 52.7979C50.4692 52.9297 50.2371 53.0001 49.9998 53.0001C49.6815 53.0001 49.3763 52.8737 49.1513 52.6486C48.9262 52.4236 48.7998 52.1184 48.7998 51.8001V51.8001ZM40.7998 51.8001C40.7998 51.5628 40.8702 51.3308 41.002 51.1334C41.1339 50.9361 41.3213 50.7823 41.5406 50.6914C41.7599 50.6006 42.0011 50.5769 42.2339 50.6232C42.4667 50.6695 42.6805 50.7837 42.8483 50.9516C43.0162 51.1194 43.1304 51.3332 43.1767 51.566C43.223 51.7988 43.1993 52.04 43.1085 52.2593C43.0176 52.4786 42.8638 52.666 42.6665 52.7979C42.4692 52.9297 42.2371 53.0001 41.9998 53.0001C41.6815 53.0001 41.3763 52.8737 41.1513 52.6486C40.9262 52.4236 40.7998 52.1184 40.7998 51.8001ZM32.7998 51.8001C32.7998 51.5628 32.8702 51.3308 33.002 51.1334C33.1339 50.9361 33.3213 50.7823 33.5406 50.6914C33.7599 50.6006 34.0011 50.5769 34.2339 50.6232C34.4667 50.6695 34.6805 50.7837 34.8483 50.9516C35.0162 51.1194 35.1304 51.3332 35.1767 51.566C35.223 51.7988 35.1993 52.04 35.1085 52.2593C35.0176 52.4786 34.8638 52.666 34.6665 52.7979C34.4692 52.9297 34.2371 53.0001 33.9998 53.0001C33.6815 53.0001 33.3763 52.8737 33.1513 52.6486C32.9262 52.4236 32.7998 52.1184 32.7998 51.8001ZM24.7998 51.8001C24.7998 51.5628 24.8702 51.3308 25.002 51.1334C25.1339 50.9361 25.3213 50.7823 25.5406 50.6914C25.7599 50.6006 26.0011 50.5769 26.2339 50.6232C26.4667 50.6695 26.6805 50.7837 26.8483 50.9516C27.0162 51.1194 27.1304 51.3332 27.1767 51.566C27.223 51.7988 27.1993 52.04 27.1085 52.2593C27.0176 52.4786 26.8638 52.666 26.6665 52.7979C26.4691 52.9297 26.2371 53.0001 25.9998 53.0001C25.6815 53.0001 25.3763 52.8737 25.1513 52.6486C24.9262 52.4236 24.7998 52.1184 24.7998 51.8001ZM16.7998 51.8001C16.7998 51.5628 16.8702 51.3308 17.002 51.1334C17.1339 50.9361 17.3213 50.7823 17.5406 50.6914C17.7599 50.6006 18.0011 50.5769 18.2339 50.6232C18.4667 50.6695 18.6805 50.7837 18.8483 50.9516C19.0162 51.1194 19.1304 51.3332 19.1767 51.566C19.223 51.7988 19.1993 52.04 19.1085 52.2593C19.0176 52.4786 18.8638 52.666 18.6665 52.7979C18.4691 52.9297 18.2371 53.0001 17.9998 53.0001C17.6815 53.0001 17.3763 52.8737 17.1513 52.6486C16.9262 52.4236 16.7998 52.1184 16.7998 51.8001ZM8.7998 51.8001C8.7998 51.5628 8.87018 51.3308 9.00204 51.1334C9.1339 50.9361 9.32131 50.7823 9.54058 50.6914C9.75986 50.6006 10.0011 50.5769 10.2339 50.6232C10.4667 50.6695 10.6805 50.7837 10.8483 50.9516C11.0162 51.1194 11.1304 51.3332 11.1767 51.566C11.223 51.7988 11.1993 52.04 11.1085 52.2593C11.0176 52.4786 10.8638 52.666 10.6665 52.7979C10.4692 52.9297 10.2371 53.0001 9.9998 53.0001C9.68154 53.0001 9.37632 52.8737 9.15128 52.6486C8.92623 52.4236 8.7998 52.1184 8.7998 51.8001V51.8001ZM44.7998 47.8001C44.7998 47.5628 44.8702 47.3308 45.002 47.1334C45.1339 46.9361 45.3213 46.7823 45.5406 46.6914C45.7599 46.6006 46.0011 46.5769 46.2339 46.6232C46.4667 46.6695 46.6805 46.7837 46.8483 46.9516C47.0162 47.1194 47.1304 47.3332 47.1767 47.566C47.223 47.7988 47.1993 48.04 47.1085 48.2593C47.0176 48.4786 46.8638 48.666 46.6665 48.7979C46.4692 48.9297 46.2371 49.0001 45.9998 49.0001C45.6815 49.0001 45.3763 48.8737 45.1513 48.6486C44.9262 48.4236 44.7998 48.1184 44.7998 47.8001ZM36.7998 47.8001C36.7998 47.5628 36.8702 47.3308 37.002 47.1334C37.1339 46.9361 37.3213 46.7823 37.5406 46.6914C37.7599 46.6006 38.0011 46.5769 38.2339 46.6232C38.4667 46.6695 38.6805 46.7837 38.8483 46.9516C39.0162 47.1194 39.1304 47.3332 39.1767 47.566C39.223 47.7988 39.1993 48.04 39.1085 48.2593C39.0176 48.4786 38.8638 48.666 38.6665 48.7979C38.4692 48.9297 38.2371 49.0001 37.9998 49.0001C37.6815 49.0001 37.3763 48.8737 37.1513 48.6486C36.9262 48.4236 36.7998 48.1184 36.7998 47.8001ZM28.7998 47.8001C28.7998 47.5628 28.8702 47.3308 29.002 47.1334C29.1339 46.9361 29.3213 46.7823 29.5406 46.6914C29.7599 46.6006 30.0011 46.5769 30.2339 46.6232C30.4667 46.6695 30.6805 46.7837 30.8483 46.9516C31.0162 47.1194 31.1304 47.3332 31.1767 47.566C31.223 47.7988 31.1993 48.04 31.1085 48.2593C31.0176 48.4786 30.8638 48.666 30.6665 48.7979C30.4691 48.9297 30.2371 49.0001 29.9998 49.0001C29.6815 49.0001 29.3763 48.8737 29.1513 48.6486C28.9262 48.4236 28.7998 48.1184 28.7998 47.8001V47.8001ZM20.7998 47.8001C20.7998 47.5628 20.8702 47.3308 21.002 47.1334C21.1339 46.9361 21.3213 46.7823 21.5406 46.6914C21.7599 46.6006 22.0011 46.5769 22.2339 46.6232C22.4667 46.6695 22.6805 46.7837 22.8483 46.9516C23.0162 47.1194 23.1304 47.3332 23.1767 47.566C23.223 47.7988 23.1993 48.04 23.1085 48.2593C23.0176 48.4786 22.8638 48.666 22.6665 48.7979C22.4691 48.9297 22.2371 49.0001 21.9998 49.0001C21.6815 49.0001 21.3763 48.8737 21.1513 48.6486C20.9262 48.4236 20.7998 48.1184 20.7998 47.8001ZM12.7998 47.8001C12.7998 47.5628 12.8702 47.3308 13.002 47.1334C13.1339 46.9361 13.3213 46.7823 13.5406 46.6914C13.7599 46.6006 14.0011 46.5769 14.2339 46.6232C14.4667 46.6695 14.6805 46.7837 14.8483 46.9516C15.0162 47.1194 15.1304 47.3332 15.1767 47.566C15.223 47.7988 15.1993 48.04 15.1085 48.2593C15.0176 48.4786 14.8638 48.666 14.6665 48.7979C14.4692 48.9297 14.2371 49.0001 13.9998 49.0001C13.6815 49.0001 13.3763 48.8737 13.1513 48.6486C12.9262 48.4236 12.7998 48.1184 12.7998 47.8001ZM48.7998 43.8001C48.7998 43.5628 48.8702 43.3308 49.002 43.1334C49.1339 42.9361 49.3213 42.7823 49.5406 42.6914C49.7599 42.6006 50.0011 42.5769 50.2339 42.6232C50.4667 42.6695 50.6805 42.7837 50.8483 42.9516C51.0162 43.1194 51.1304 43.3332 51.1767 43.566C51.223 43.7988 51.1993 44.04 51.1085 44.2593C51.0176 44.4786 50.8638 44.666 50.6665 44.7979C50.4692 44.9297 50.2371 45.0001 49.9998 45.0001C49.6815 45.0001 49.3763 44.8737 49.1513 44.6486C48.9262 44.4236 48.7998 44.1184 48.7998 43.8001V43.8001ZM40.7998 43.8001C40.7998 43.5628 40.8702 43.3308 41.002 43.1334C41.1339 42.9361 41.3213 42.7823 41.5406 42.6914C41.7599 42.6006 42.0011 42.5769 42.2339 42.6232C42.4667 42.6695 42.6805 42.7837 42.8483 42.9516C43.0162 43.1194 43.1304 43.3332 43.1767 43.566C43.223 43.7988 43.1993 44.04 43.1085 44.2593C43.0176 44.4786 42.8638 44.666 42.6665 44.7979C42.4692 44.9297 42.2371 45.0001 41.9998 45.0001C41.6815 45.0001 41.3763 44.8737 41.1513 44.6486C40.9262 44.4236 40.7998 44.1184 40.7998 43.8001V43.8001ZM16.7998 43.8001C16.7998 43.5628 16.8702 43.3308 17.002 43.1334C17.1339 42.9361 17.3213 42.7823 17.5406 42.6914C17.7599 42.6006 18.0011 42.5769 18.2339 42.6232C18.4667 42.6695 18.6805 42.7837 18.8483 42.9516C19.0162 43.1194 19.1304 43.3332 19.1767 43.566C19.223 43.7988 19.1993 44.04 19.1085 44.2593C19.0176 44.4786 18.8638 44.666 18.6665 44.7979C18.4691 44.9297 18.2371 45.0001 17.9998 45.0001C17.6815 45.0001 17.3763 44.8737 17.1513 44.6486C16.9262 44.4236 16.7998 44.1184 16.7998 43.8001V43.8001ZM8.7998 43.8001C8.7998 43.5628 8.87018 43.3308 9.00204 43.1334C9.1339 42.9361 9.32131 42.7823 9.54058 42.6914C9.75986 42.6006 10.0011 42.5769 10.2339 42.6232C10.4667 42.6695 10.6805 42.7837 10.8483 42.9516C11.0162 43.1194 11.1304 43.3332 11.1767 43.566C11.223 43.7988 11.1993 44.04 11.1085 44.2593C11.0176 44.4786 10.8638 44.666 10.6665 44.7979C10.4692 44.9297 10.2371 45.0001 9.9998 45.0001C9.68154 45.0001 9.37632 44.8737 9.15128 44.6486C8.92623 44.4236 8.7998 44.1184 8.7998 43.8001V43.8001Z" fill="#13001E"/>
<path d="M32.1731 10.5401C31.3731 7.04008 35.1665 4.35428 39.0731 6.19808C48.2731 10.5401 42.8003 16.6001 39.4003 16.2001C36.0003 15.8001 32.9731 14.0401 32.1731 10.5401Z" fill="#ECB4E5"/>
<g opacity="0.6" style="mix-blend-mode:multiply">
<path d="M35.5 11.1001C35.5 11.1001 42.3 15.5001 44 13.1001C44.1754 14.1023 43.3688 16.9331 42.1 16.9001C38.3046 16.8013 35.5 11.1001 35.5 11.1001Z" fill="#162055"/>
</g>
<path d="M34.3998 32.6C30.1032 34.6642 29.4764 34.5536 19.9997 26.8C5.69975 15.1 19.1997 4.40003 33.6998 10.1C49.3998 17 44.14 27.9214 34.3998 32.6Z" fill="#ECB4E5"/>
<path d="M34.7999 40.8003C33.3333 43.2003 26.6665 43.2003 25.1999 40.8003V36.8003C25.1999 36.8003 24.5473 36.8203 24.0999 36.8003C19.4217 36.6003 17.8585 29.0749 18.5927 21.5479C19.1303 16.0355 23.7999 23.6003 31.3999 18.3003C31.0999 24.1003 33.5999 23.5003 34.6999 22.8003C39.6999 20.5003 39.7417 29.9287 34.7999 29.2003V40.8003Z" fill="#F7F1F7"/>
<path d="M25.2002 36.7991C27.8992 36.5987 31.9239 33.7793 31.9239 33.7793C31.9239 33.7793 29.9986 37.8981 25.2004 38.5983L25.2002 36.7991Z" fill="#16011B"/>
<path d="M34.7994 40.292V39C35.1662 39 36.2164 39.8664 36.7566 40.6C38.8918 43.5 36.5234 46.1 34.5918 46.1C32.1546 46.1 30.5394 44.0636 29.9994 43.084C29.4594 44.064 27.8442 46.1 25.407 46.1C23.4754 46.1 21.107 43.5 23.2422 40.6C23.7824 39.8664 24.8326 39 25.1994 39V40.292C25.1994 41.8216 28.5474 42.5296 29.9928 42.595C31.361 42.5296 34.7994 41.8216 34.7994 40.292Z" fill="#FFF9F5"/>
<path d="M32.5179 14.2858C29.3179 22.2858 31.1179 26.1858 33.6179 30.8858C36.1179 35.5858 33.0179 39.9858 33.0179 39.9858C33.0179 39.9858 36.6179 37.6858 36.6179 32.5858C36.6179 27.4858 33.0179 24.2858 36.0179 20.0858C39.0179 15.8858 35.7179 6.28576 32.5179 14.2858Z" fill="#162055"/>
</g>
<defs>
<linearGradient id="paint0_linear_516_560" x1="30" y1="0" x2="30" y2="60" gradientUnits="userSpaceOnUse">
<stop stop-color="#1D0024"/>
<stop offset="1" stop-color="#100014"/>
</linearGradient>
<clipPath id="clip0_516_560">
<rect width="60" height="60" rx="30" fill="white"/>
</clipPath>
</defs>
</svg>
