<svg width="60" height="60" viewBox="0 0 60 60" fill="none" xmlns="http://www.w3.org/2000/svg">
<g clip-path="url(#clip0_516_566)">
<rect width="60" height="60" rx="30" fill="url(#paint0_linear_516_566)"/>
<path d="M36.2002 34.7998V37.1998C36.2002 40.3998 40.8002 41.7998 40.8002 41.7998C40.8002 41.7998 35.5002 45.7998 30.0002 45.7998C24.5002 45.7998 19.2002 41.7998 19.2002 41.7998C19.2002 41.7998 23.8364 40.3998 23.8002 37.1998C23.764 33.9998 23.7882 32.1198 23.764 26.6374C20.8976 22.922 21.0816 20.4284 22.649 18.6748C27.9002 12.7998 42.2002 14.7998 42.2002 14.7998C42.2002 14.7998 43.5346 29.1984 40.5002 33.3998C39.2002 35.1998 36.2002 34.7998 36.2002 34.7998Z" fill="#F7F1F7"/>
<path d="M36.2002 34.7999C31.8002 34.2999 29.2002 32.3999 29.2002 32.3999C30.8417 34.8284 33.3433 36.5438 36.2002 37.1999V34.7999Z" fill="#17011C"/>
<path d="M51 47.8615C52.904 51.7329 54 60.6615 54 60.6615H6C6 60.6615 7.0964 51.7319 9 47.8615C10.9036 43.9911 22.02 40.4013 22.02 40.4013C24.1626 44.7999 35.9216 44.7999 37.9742 40.3999C37.9742 40.3999 49.096 43.9901 51 47.8615Z" fill="#9ED1ED"/>
<path d="M29.2002 55.5998C29.2002 55.4416 29.2471 55.2869 29.335 55.1553C29.4229 55.0238 29.5479 54.9213 29.694 54.8607C29.8402 54.8002 30.0011 54.7843 30.1563 54.8152C30.3115 54.846 30.454 54.9222 30.5659 55.0341C30.6778 55.146 30.754 55.2885 30.7848 55.4437C30.8157 55.5989 30.7998 55.7598 30.7393 55.906C30.6787 56.0521 30.5762 56.1771 30.4447 56.265C30.3131 56.3529 30.1584 56.3998 30.0002 56.3998C29.788 56.3998 29.5845 56.3155 29.4345 56.1655C29.2845 56.0155 29.2002 55.812 29.2002 55.5998ZM29.2002 51.5998C29.2002 51.4416 29.2471 51.2869 29.335 51.1553C29.4229 51.0238 29.5479 50.9213 29.694 50.8607C29.8402 50.8002 30.0011 50.7843 30.1563 50.8152C30.3115 50.846 30.454 50.9222 30.5659 51.0341C30.6778 51.146 30.754 51.2885 30.7848 51.4437C30.8157 51.5989 30.7998 51.7598 30.7393 51.906C30.6787 52.0521 30.5762 52.1771 30.4447 52.265C30.3131 52.3529 30.1584 52.3998 30.0002 52.3998C29.788 52.3998 29.5845 52.3155 29.4345 52.1655C29.2845 52.0155 29.2002 51.812 29.2002 51.5998ZM29.2002 47.5998C29.2002 47.4416 29.2471 47.2869 29.335 47.1553C29.4229 47.0238 29.5479 46.9213 29.694 46.8607C29.8402 46.8002 30.0011 46.7843 30.1563 46.8152C30.3115 46.846 30.454 46.9222 30.5659 47.0341C30.6778 47.146 30.754 47.2885 30.7848 47.4437C30.8157 47.5989 30.7998 47.7598 30.7393 47.906C30.6787 48.0521 30.5762 48.1771 30.4447 48.265C30.3131 48.3529 30.1584 48.3998 30.0002 48.3998C29.788 48.3998 29.5845 48.3155 29.4345 48.1655C29.2845 48.0155 29.2002 47.812 29.2002 47.5998V47.5998Z" fill="white"/>
<path d="M26.2311 20.6418C25.5951 20.0956 24.8223 19.7278 23.7299 20.2954C21.1401 21.64 23.1001 26.8 25.4001 26.8C26.0001 26.8 26.2985 28.6844 23.6271 30C23.6271 27.9 20.4271 22.7 20.1471 17.9656C16.9271 16.7666 17.7271 11.9692 19.9377 11.9692C19.5849 7.57162 26.6271 5.30002 29.3539 7.82382C32.1271 4.50002 39.1271 6.20002 39.5497 9.08362C44.3631 6.51422 47.5271 13.9 43.0201 16.7672C41.1655 17.9472 36.8271 18.3962 30.5645 18.3962C29.6191 18.3962 29.0895 18.631 29.3539 19.8C29.8657 22.0652 28.6775 23.492 26.2311 20.6418Z" fill="#ECB4E5"/>
</g>
<defs>
<linearGradient id="paint0_linear_516_566" x1="30" y1="0" x2="30" y2="60" gradientUnits="userSpaceOnUse">
<stop stop-color="#1D0024"/>
<stop offset="1" stop-color="#100014"/>
</linearGradient>
<clipPath id="clip0_516_566">
<rect width="60" height="60" rx="30" fill="white"/>
</clipPath>
</defs>
</svg>
