<svg width="60" height="60" viewBox="0 0 60 60" fill="none" xmlns="http://www.w3.org/2000/svg">
<g clip-path="url(#clip0_516_578)">
<rect width="60" height="60" rx="30" fill="url(#paint0_linear_516_578)"/>
<path d="M23.6002 37.757V37.8432C23.5764 39.6668 22.0431 41.038 19.0002 41.957C22.6668 44.6236 26.3336 46.757 30.0002 46.757C33.6668 46.757 37.3336 44.6236 41.0002 41.957C37.9779 41.037 36.4446 39.6636 36.4002 37.837C36.4002 37.5114 36.4026 37.049 36.4048 36.1808C36.4048 36.0429 36.4051 35.9017 36.4058 35.7572C36.6244 35.788 36.6058 35.7684 36.4058 35.7128C36.4118 33.429 36.4216 30.358 36.4352 27.237C39.3016 23.5216 38.2486 19.1658 37.3504 19.2744C36.2494 19.4086 26.7088 10.355 24.8788 9.89076C23.0488 9.42656 18.4002 10.9252 17.6002 15.1002C16.8002 19.2752 16.4658 29.7988 19.5002 34.0002C20.3636 35.1958 21.7236 35.6634 23.5802 35.4032C23.5828 36.277 23.588 36.7674 23.6002 37.757Z" fill="#F7F1F7"/>
<path d="M23.5996 35.4C27.9996 34.9 30.7996 33 30.7996 33C30.7996 33 27.7716 37.0234 23.5996 37.8V35.4Z" fill="#18001D"/>
<path d="M37.9006 27.3002C39.2786 23.9862 44.8006 17.2368 40.0406 13.0368C38.4406 5.23676 29.6006 6.10016 23.7006 7.90016C19.7352 9.10996 16.7406 11.5002 16.1006 9.70016C12.1006 13.0368 14.1038 16.3002 16.7406 17.2368C19.1338 18.0868 23.1806 18.9368 30.0618 18.1368C31.291 17.9938 31.0336 21.7584 31.6904 22.1654C32.6758 22.776 33.4406 18.9368 36.1422 20.0896C38.8438 21.2424 37.2406 26.5876 34.3406 26.5876C33.3406 26.5876 32.8406 29.337 35.5406 30.637C37.5006 31.6002 37.0052 29.4536 37.9006 27.3002Z" fill="#ECB4E5"/>
<path d="M51 48.0617C52.904 51.9331 54 60.8617 54 60.8617H6C6 60.8617 7.0964 51.9321 9 48.0617C10.9036 44.1913 22.02 40.6015 22.02 40.6015C24.1626 45.0001 35.9216 45.0001 37.9742 40.6001C37.9742 40.6001 49.096 44.1903 51 48.0617Z" fill="#ECB4E5"/>
<mask id="mask0_516_578" style="mask-type:alpha" maskUnits="userSpaceOnUse" x="6" y="40" width="48" height="21">
<path d="M51 48.0617C52.904 51.9331 54 60.8617 54 60.8617H6C6 60.8617 7.0964 51.9321 9 48.0617C10.9036 44.1913 22.02 40.6015 22.02 40.6015C24.1626 45.0001 35.9216 45.0001 37.9742 40.6001C37.9742 40.6001 49.096 44.1903 51 48.0617Z" fill="url(#paint1_linear_516_578)"/>
</mask>
<g mask="url(#mask0_516_578)">
<path d="M4 56.8002V55.2002H56V56.8002H4ZM4 52.8002V51.2002H56V52.8002H4ZM4 48.8002V47.2002H56V48.8002H4Z" fill="#9ED1ED"/>
</g>
</g>
<defs>
<linearGradient id="paint0_linear_516_578" x1="30" y1="0" x2="30" y2="60" gradientUnits="userSpaceOnUse">
<stop stop-color="#1D0024"/>
<stop offset="1" stop-color="#100014"/>
</linearGradient>
<linearGradient id="paint1_linear_516_578" x1="30" y1="60.8617" x2="30" y2="40.6001" gradientUnits="userSpaceOnUse">
<stop stop-color="#E6864E"/>
<stop offset="1" stop-color="#E67240"/>
</linearGradient>
<clipPath id="clip0_516_578">
<rect width="60" height="60" rx="30" fill="white"/>
</clipPath>
</defs>
</svg>
