<svg width="16" height="16" viewBox="0 0 16 16" fill="none" xmlns="http://www.w3.org/2000/svg">
<g clip-path="url(#clip0_490_604)">
<path d="M3.65349 1.32781C3.59446 1.25187 3.51995 1.18936 3.4349 1.14443C3.34985 1.0995 3.25621 1.07319 3.16021 1.06723C3.06421 1.06127 2.96804 1.07581 2.87809 1.10987C2.78814 1.14394 2.70647 1.19675 2.63849 1.26481L1.60449 2.29981C1.12149 2.78381 0.943494 3.46881 1.15449 4.06981C2.03122 6.55691 3.45565 8.81521 5.32249 10.6778C7.18509 12.5447 9.44339 13.9691 11.9305 14.8458C12.5315 15.0568 13.2165 14.8788 13.7005 14.3958L14.7345 13.3618C14.8026 13.2938 14.8554 13.2122 14.8894 13.1222C14.9235 13.0323 14.938 12.9361 14.9321 12.8401C14.9261 12.7441 14.8998 12.6505 14.8549 12.5654C14.8099 12.4804 14.7474 12.4058 14.6715 12.3468L12.3645 10.5528C12.2833 10.49 12.1889 10.4464 12.0885 10.4253C11.988 10.4042 11.8841 10.406 11.7845 10.4308L9.5945 10.9778C9.30215 11.0504 8.99602 11.0462 8.70574 10.9658C8.41545 10.8854 8.15084 10.7314 7.9375 10.5188L5.48149 8.06181C5.26868 7.84857 5.11451 7.584 5.03392 7.29371C4.95334 7.00342 4.94906 6.69724 5.02149 6.40481L5.5695 4.21481C5.59425 4.11519 5.59614 4.01126 5.57501 3.91082C5.55388 3.81037 5.51029 3.71601 5.44749 3.63481L3.65349 1.32781ZM1.88349 0.510807C2.05849 0.335756 2.26872 0.199937 2.50023 0.112368C2.73175 0.0247988 2.97924 -0.0125165 3.22628 0.00289975C3.47332 0.018316 3.71425 0.0861112 3.93308 0.201783C4.1519 0.317456 4.34362 0.478358 4.49549 0.673807L6.2895 2.97981C6.6185 3.40281 6.7345 3.95381 6.6045 4.47381L6.0575 6.66381C6.02941 6.77725 6.03104 6.89601 6.06222 7.00864C6.09339 7.12127 6.15307 7.22396 6.2355 7.30681L8.6925 9.76381C8.77544 9.84639 8.8783 9.90617 8.99113 9.93736C9.10395 9.96854 9.22291 9.97007 9.3365 9.94181L11.5255 9.39481C11.7821 9.33102 12.0499 9.32622 12.3087 9.38078C12.5674 9.43534 12.8105 9.54783 13.0195 9.70981L15.3255 11.5038C16.1545 12.1488 16.2305 13.3738 15.4885 14.1148L14.4545 15.1488C13.7145 15.8888 12.6085 16.2138 11.5775 15.8508C8.93817 14.9234 6.54203 13.4126 4.56749 11.4308C2.58587 9.45655 1.07505 7.06078 0.147494 4.42181C-0.214506 3.39181 0.110494 2.28481 0.850495 1.54481L1.88349 0.510807Z" fill="#AA81FF"/>
</g>
<defs>
<clipPath id="clip0_490_604">
<rect width="16" height="16" fill="white"/>
</clipPath>
</defs>
</svg>
