<svg width="44" height="44" viewBox="0 0 44 44" fill="none" xmlns="http://www.w3.org/2000/svg">
<path d="M19.2497 32.0833L11.9163 24.7499M19.2497 32.0833L23.833 36.6666L25.2575 35.5574C25.7708 35.1578 26.2493 34.7013 26.5683 34.1329C27.1791 33.0397 27.4997 31.8083 27.4997 30.5561V25.6666M19.2497 32.0833L23.833 28.5193L27.4997 25.6666M11.9163 24.7499L7.33301 20.1666L8.44034 18.7421C8.84184 18.2288 9.29834 17.7503 9.86667 17.4313C10.9599 16.8205 12.1913 16.4999 13.4435 16.4999H18.333M11.9163 24.7499L15.4803 20.1666L18.333 16.4999M27.4997 25.6666L31.2488 22.8561C35.6928 19.5213 37.66 12.7966 36.6663 7.33325C31.2012 6.33959 24.4765 8.30675 21.1435 12.7508L18.333 16.4999M13.7497 34.8333L7.33301 36.6666L9.47067 30.2499M28.4163 17.4166C28.9026 17.4166 29.3689 17.2234 29.7127 16.8796C30.0565 16.5358 30.2497 16.0695 30.2497 15.5833C30.2497 15.097 30.0565 14.6307 29.7127 14.2869C29.3689 13.9431 28.9026 13.7499 28.4163 13.7499C27.9301 13.7499 27.4638 13.9431 27.12 14.2869C26.7762 14.6307 26.583 15.097 26.583 15.5833C26.583 16.0695 26.7762 16.5358 27.12 16.8796C27.4638 17.2234 27.9301 17.4166 28.4163 17.4166Z" stroke="#162055" stroke-width="3.66667" stroke-linecap="round" stroke-linejoin="round"/>
</svg>
