<svg width="60" height="60" viewBox="0 0 60 60" fill="none" xmlns="http://www.w3.org/2000/svg">
<g clip-path="url(#clip0_516_572)">
<rect width="60" height="60" rx="30" fill="#ECB4E5"/>
<path d="M48.4004 48.6C49.867 51.4 50.6004 61.6 50.6004 61.6H9.40039C9.40039 61.6 10.1338 51.4 11.6004 48.6C13.8004 44.4 30.0004 39 30.0004 39C30.0004 39 46.2004 44.4 48.4004 48.6Z" fill="#A8C4EC"/>
<mask id="mask0_516_572" style="mask-type:alpha" maskUnits="userSpaceOnUse" x="9" y="39" width="42" height="23">
<path d="M48.4004 48.6C49.867 51.4 50.6004 61.6 50.6004 61.6H9.40039C9.40039 61.6 10.1338 51.4 11.6004 48.6C13.8004 44.4 30.0004 39 30.0004 39C30.0004 39 46.2004 44.4 48.4004 48.6Z" fill="url(#paint0_linear_516_572)"/>
</mask>
<g mask="url(#mask0_516_572)">
<path d="M48.8008 59.8001C48.8008 59.5628 48.8712 59.3308 49.003 59.1334C49.1349 58.9361 49.3223 58.7823 49.5416 58.6914C49.7608 58.6006 50.0021 58.5769 50.2349 58.6232C50.4677 58.6695 50.6815 58.7837 50.8493 58.9516C51.0171 59.1194 51.1314 59.3332 51.1777 59.566C51.224 59.7988 51.2003 60.04 51.1094 60.2593C51.0186 60.4786 50.8648 60.666 50.6675 60.7979C50.4701 60.9297 50.2381 61.0001 50.0008 61.0001C49.6825 61.0001 49.3773 60.8737 49.1523 60.6486C48.9272 60.4236 48.8008 60.1184 48.8008 59.8001V59.8001ZM40.8008 59.8001C40.8008 59.5628 40.8712 59.3308 41.003 59.1334C41.1349 58.9361 41.3223 58.7823 41.5416 58.6914C41.7608 58.6006 42.0021 58.5769 42.2349 58.6232C42.4677 58.6695 42.6815 58.7837 42.8493 58.9516C43.0171 59.1194 43.1314 59.3332 43.1777 59.566C43.224 59.7988 43.2003 60.04 43.1094 60.2593C43.0186 60.4786 42.8648 60.666 42.6675 60.7979C42.4701 60.9297 42.2381 61.0001 42.0008 61.0001C41.6825 61.0001 41.3773 60.8737 41.1523 60.6486C40.9272 60.4236 40.8008 60.1184 40.8008 59.8001ZM32.8008 59.8001C32.8008 59.5628 32.8712 59.3308 33.003 59.1334C33.1349 58.9361 33.3223 58.7823 33.5416 58.6914C33.7608 58.6006 34.0021 58.5769 34.2349 58.6232C34.4677 58.6695 34.6815 58.7837 34.8493 58.9516C35.0171 59.1194 35.1314 59.3332 35.1777 59.566C35.224 59.7988 35.2003 60.04 35.1094 60.2593C35.0186 60.4786 34.8648 60.666 34.6675 60.7979C34.4701 60.9297 34.2381 61.0001 34.0008 61.0001C33.6825 61.0001 33.3773 60.8737 33.1523 60.6486C32.9272 60.4236 32.8008 60.1184 32.8008 59.8001ZM24.8008 59.8001C24.8008 59.5628 24.8712 59.3308 25.003 59.1334C25.1349 58.9361 25.3223 58.7823 25.5416 58.6914C25.7608 58.6006 26.0021 58.5769 26.2349 58.6232C26.4677 58.6695 26.6815 58.7837 26.8493 58.9516C27.0171 59.1194 27.1314 59.3332 27.1777 59.566C27.224 59.7988 27.2003 60.04 27.1094 60.2593C27.0186 60.4786 26.8648 60.666 26.6675 60.7979C26.4701 60.9297 26.2381 61.0001 26.0008 61.0001C25.6825 61.0001 25.3773 60.8737 25.1523 60.6486C24.9272 60.4236 24.8008 60.1184 24.8008 59.8001ZM16.8008 59.8001C16.8008 59.5628 16.8712 59.3308 17.003 59.1334C17.1349 58.9361 17.3223 58.7823 17.5416 58.6914C17.7608 58.6006 18.0021 58.5769 18.2349 58.6232C18.4677 58.6695 18.6815 58.7837 18.8493 58.9516C19.0171 59.1194 19.1314 59.3332 19.1777 59.566C19.224 59.7988 19.2003 60.04 19.1094 60.2593C19.0186 60.4786 18.8648 60.666 18.6675 60.7979C18.4701 60.9297 18.2381 61.0001 18.0008 61.0001C17.6825 61.0001 17.3773 60.8737 17.1523 60.6486C16.9272 60.4236 16.8008 60.1184 16.8008 59.8001ZM8.80078 59.8001C8.80078 59.5628 8.87116 59.3308 9.00302 59.1334C9.13488 58.9361 9.32229 58.7823 9.54156 58.6914C9.76083 58.6006 10.0021 58.5769 10.2349 58.6232C10.4677 58.6695 10.6815 58.7837 10.8493 58.9516C11.0171 59.1194 11.1314 59.3332 11.1777 59.566C11.224 59.7988 11.2003 60.04 11.1094 60.2593C11.0186 60.4786 10.8648 60.666 10.6675 60.7979C10.4701 60.9297 10.2381 61.0001 10.0008 61.0001C9.68252 61.0001 9.3773 60.8737 9.15225 60.6486C8.92721 60.4236 8.80078 60.1184 8.80078 59.8001V59.8001ZM44.8008 55.8001C44.8008 55.5628 44.8712 55.3308 45.003 55.1334C45.1349 54.9361 45.3223 54.7823 45.5416 54.6914C45.7608 54.6006 46.0021 54.5769 46.2349 54.6232C46.4677 54.6695 46.6815 54.7837 46.8493 54.9516C47.0171 55.1194 47.1314 55.3332 47.1777 55.566C47.224 55.7988 47.2003 56.04 47.1094 56.2593C47.0186 56.4786 46.8648 56.666 46.6675 56.7979C46.4701 56.9297 46.2381 57.0001 46.0008 57.0001C45.6825 57.0001 45.3773 56.8737 45.1523 56.6486C44.9272 56.4236 44.8008 56.1184 44.8008 55.8001ZM36.8008 55.8001C36.8008 55.5628 36.8712 55.3308 37.003 55.1334C37.1349 54.9361 37.3223 54.7823 37.5416 54.6914C37.7608 54.6006 38.0021 54.5769 38.2349 54.6232C38.4677 54.6695 38.6815 54.7837 38.8493 54.9516C39.0171 55.1194 39.1314 55.3332 39.1777 55.566C39.224 55.7988 39.2003 56.04 39.1094 56.2593C39.0186 56.4786 38.8648 56.666 38.6675 56.7979C38.4701 56.9297 38.2381 57.0001 38.0008 57.0001C37.6825 57.0001 37.3773 56.8737 37.1523 56.6486C36.9272 56.4236 36.8008 56.1184 36.8008 55.8001ZM28.8008 55.8001C28.8008 55.5628 28.8712 55.3308 29.003 55.1334C29.1349 54.9361 29.3223 54.7823 29.5416 54.6914C29.7608 54.6006 30.0021 54.5769 30.2349 54.6232C30.4677 54.6695 30.6815 54.7837 30.8493 54.9516C31.0171 55.1194 31.1314 55.3332 31.1777 55.566C31.224 55.7988 31.2003 56.04 31.1094 56.2593C31.0186 56.4786 30.8648 56.666 30.6675 56.7979C30.4701 56.9297 30.2381 57.0001 30.0008 57.0001C29.6825 57.0001 29.3773 56.8737 29.1523 56.6486C28.9272 56.4236 28.8008 56.1184 28.8008 55.8001V55.8001ZM20.8008 55.8001C20.8008 55.5628 20.8712 55.3308 21.003 55.1334C21.1349 54.9361 21.3223 54.7823 21.5416 54.6914C21.7608 54.6006 22.0021 54.5769 22.2349 54.6232C22.4677 54.6695 22.6815 54.7837 22.8493 54.9516C23.0171 55.1194 23.1314 55.3332 23.1777 55.566C23.224 55.7988 23.2003 56.04 23.1094 56.2593C23.0186 56.4786 22.8648 56.666 22.6675 56.7979C22.4701 56.9297 22.2381 57.0001 22.0008 57.0001C21.6825 57.0001 21.3773 56.8737 21.1523 56.6486C20.9272 56.4236 20.8008 56.1184 20.8008 55.8001ZM12.8008 55.8001C12.8008 55.5628 12.8712 55.3308 13.003 55.1334C13.1349 54.9361 13.3223 54.7823 13.5416 54.6914C13.7608 54.6006 14.0021 54.5769 14.2349 54.6232C14.4677 54.6695 14.6815 54.7837 14.8493 54.9516C15.0171 55.1194 15.1314 55.3332 15.1777 55.566C15.224 55.7988 15.2003 56.04 15.1094 56.2593C15.0186 56.4786 14.8648 56.666 14.6675 56.7979C14.4701 56.9297 14.2381 57.0001 14.0008 57.0001C13.6825 57.0001 13.3773 56.8737 13.1523 56.6486C12.9272 56.4236 12.8008 56.1184 12.8008 55.8001ZM48.8008 51.8001C48.8008 51.5628 48.8712 51.3308 49.003 51.1334C49.1349 50.9361 49.3223 50.7823 49.5416 50.6914C49.7608 50.6006 50.0021 50.5769 50.2349 50.6232C50.4677 50.6695 50.6815 50.7837 50.8493 50.9516C51.0171 51.1194 51.1314 51.3332 51.1777 51.566C51.224 51.7988 51.2003 52.04 51.1094 52.2593C51.0186 52.4786 50.8648 52.666 50.6675 52.7979C50.4701 52.9297 50.2381 53.0001 50.0008 53.0001C49.6825 53.0001 49.3773 52.8737 49.1523 52.6486C48.9272 52.4236 48.8008 52.1184 48.8008 51.8001V51.8001ZM40.8008 51.8001C40.8008 51.5628 40.8712 51.3308 41.003 51.1334C41.1349 50.9361 41.3223 50.7823 41.5416 50.6914C41.7608 50.6006 42.0021 50.5769 42.2349 50.6232C42.4677 50.6695 42.6815 50.7837 42.8493 50.9516C43.0171 51.1194 43.1314 51.3332 43.1777 51.566C43.224 51.7988 43.2003 52.04 43.1094 52.2593C43.0186 52.4786 42.8648 52.666 42.6675 52.7979C42.4701 52.9297 42.2381 53.0001 42.0008 53.0001C41.6825 53.0001 41.3773 52.8737 41.1523 52.6486C40.9272 52.4236 40.8008 52.1184 40.8008 51.8001ZM32.8008 51.8001C32.8008 51.5628 32.8712 51.3308 33.003 51.1334C33.1349 50.9361 33.3223 50.7823 33.5416 50.6914C33.7608 50.6006 34.0021 50.5769 34.2349 50.6232C34.4677 50.6695 34.6815 50.7837 34.8493 50.9516C35.0171 51.1194 35.1314 51.3332 35.1777 51.566C35.224 51.7988 35.2003 52.04 35.1094 52.2593C35.0186 52.4786 34.8648 52.666 34.6675 52.7979C34.4701 52.9297 34.2381 53.0001 34.0008 53.0001C33.6825 53.0001 33.3773 52.8737 33.1523 52.6486C32.9272 52.4236 32.8008 52.1184 32.8008 51.8001ZM24.8008 51.8001C24.8008 51.5628 24.8712 51.3308 25.003 51.1334C25.1349 50.9361 25.3223 50.7823 25.5416 50.6914C25.7608 50.6006 26.0021 50.5769 26.2349 50.6232C26.4677 50.6695 26.6815 50.7837 26.8493 50.9516C27.0171 51.1194 27.1314 51.3332 27.1777 51.566C27.224 51.7988 27.2003 52.04 27.1094 52.2593C27.0186 52.4786 26.8648 52.666 26.6675 52.7979C26.4701 52.9297 26.2381 53.0001 26.0008 53.0001C25.6825 53.0001 25.3773 52.8737 25.1523 52.6486C24.9272 52.4236 24.8008 52.1184 24.8008 51.8001ZM16.8008 51.8001C16.8008 51.5628 16.8712 51.3308 17.003 51.1334C17.1349 50.9361 17.3223 50.7823 17.5416 50.6914C17.7608 50.6006 18.0021 50.5769 18.2349 50.6232C18.4677 50.6695 18.6815 50.7837 18.8493 50.9516C19.0171 51.1194 19.1314 51.3332 19.1777 51.566C19.224 51.7988 19.2003 52.04 19.1094 52.2593C19.0186 52.4786 18.8648 52.666 18.6675 52.7979C18.4701 52.9297 18.2381 53.0001 18.0008 53.0001C17.6825 53.0001 17.3773 52.8737 17.1523 52.6486C16.9272 52.4236 16.8008 52.1184 16.8008 51.8001ZM8.80078 51.8001C8.80078 51.5628 8.87116 51.3308 9.00302 51.1334C9.13488 50.9361 9.32229 50.7823 9.54156 50.6914C9.76083 50.6006 10.0021 50.5769 10.2349 50.6232C10.4677 50.6695 10.6815 50.7837 10.8493 50.9516C11.0171 51.1194 11.1314 51.3332 11.1777 51.566C11.224 51.7988 11.2003 52.04 11.1094 52.2593C11.0186 52.4786 10.8648 52.666 10.6675 52.7979C10.4701 52.9297 10.2381 53.0001 10.0008 53.0001C9.68252 53.0001 9.3773 52.8737 9.15225 52.6486C8.92721 52.4236 8.80078 52.1184 8.80078 51.8001V51.8001ZM44.8008 47.8001C44.8008 47.5628 44.8712 47.3308 45.003 47.1334C45.1349 46.9361 45.3223 46.7823 45.5416 46.6914C45.7608 46.6006 46.0021 46.5769 46.2349 46.6232C46.4677 46.6695 46.6815 46.7837 46.8493 46.9516C47.0171 47.1194 47.1314 47.3332 47.1777 47.566C47.224 47.7988 47.2003 48.04 47.1094 48.2593C47.0186 48.4786 46.8648 48.666 46.6675 48.7979C46.4701 48.9297 46.2381 49.0001 46.0008 49.0001C45.6825 49.0001 45.3773 48.8737 45.1523 48.6486C44.9272 48.4236 44.8008 48.1184 44.8008 47.8001ZM36.8008 47.8001C36.8008 47.5628 36.8712 47.3308 37.003 47.1334C37.1349 46.9361 37.3223 46.7823 37.5416 46.6914C37.7608 46.6006 38.0021 46.5769 38.2349 46.6232C38.4677 46.6695 38.6815 46.7837 38.8493 46.9516C39.0171 47.1194 39.1314 47.3332 39.1777 47.566C39.224 47.7988 39.2003 48.04 39.1094 48.2593C39.0186 48.4786 38.8648 48.666 38.6675 48.7979C38.4701 48.9297 38.2381 49.0001 38.0008 49.0001C37.6825 49.0001 37.3773 48.8737 37.1523 48.6486C36.9272 48.4236 36.8008 48.1184 36.8008 47.8001ZM28.8008 47.8001C28.8008 47.5628 28.8712 47.3308 29.003 47.1334C29.1349 46.9361 29.3223 46.7823 29.5416 46.6914C29.7608 46.6006 30.0021 46.5769 30.2349 46.6232C30.4677 46.6695 30.6815 46.7837 30.8493 46.9516C31.0171 47.1194 31.1314 47.3332 31.1777 47.566C31.224 47.7988 31.2003 48.04 31.1094 48.2593C31.0186 48.4786 30.8648 48.666 30.6675 48.7979C30.4701 48.9297 30.2381 49.0001 30.0008 49.0001C29.6825 49.0001 29.3773 48.8737 29.1523 48.6486C28.9272 48.4236 28.8008 48.1184 28.8008 47.8001V47.8001ZM20.8008 47.8001C20.8008 47.5628 20.8712 47.3308 21.003 47.1334C21.1349 46.9361 21.3223 46.7823 21.5416 46.6914C21.7608 46.6006 22.0021 46.5769 22.2349 46.6232C22.4677 46.6695 22.6815 46.7837 22.8493 46.9516C23.0171 47.1194 23.1314 47.3332 23.1777 47.566C23.224 47.7988 23.2003 48.04 23.1094 48.2593C23.0186 48.4786 22.8648 48.666 22.6675 48.7979C22.4701 48.9297 22.2381 49.0001 22.0008 49.0001C21.6825 49.0001 21.3773 48.8737 21.1523 48.6486C20.9272 48.4236 20.8008 48.1184 20.8008 47.8001ZM12.8008 47.8001C12.8008 47.5628 12.8712 47.3308 13.003 47.1334C13.1349 46.9361 13.3223 46.7823 13.5416 46.6914C13.7608 46.6006 14.0021 46.5769 14.2349 46.6232C14.4677 46.6695 14.6815 46.7837 14.8493 46.9516C15.0171 47.1194 15.1314 47.3332 15.1777 47.566C15.224 47.7988 15.2003 48.04 15.1094 48.2593C15.0186 48.4786 14.8648 48.666 14.6675 48.7979C14.4701 48.9297 14.2381 49.0001 14.0008 49.0001C13.6825 49.0001 13.3773 48.8737 13.1523 48.6486C12.9272 48.4236 12.8008 48.1184 12.8008 47.8001ZM48.8008 43.8001C48.8008 43.5628 48.8712 43.3308 49.003 43.1334C49.1349 42.9361 49.3223 42.7823 49.5416 42.6914C49.7608 42.6006 50.0021 42.5769 50.2349 42.6232C50.4677 42.6695 50.6815 42.7837 50.8493 42.9516C51.0171 43.1194 51.1314 43.3332 51.1777 43.566C51.224 43.7988 51.2003 44.04 51.1094 44.2593C51.0186 44.4786 50.8648 44.666 50.6675 44.7979C50.4701 44.9297 50.2381 45.0001 50.0008 45.0001C49.6825 45.0001 49.3773 44.8737 49.1523 44.6486C48.9272 44.4236 48.8008 44.1184 48.8008 43.8001V43.8001ZM40.8008 43.8001C40.8008 43.5628 40.8712 43.3308 41.003 43.1334C41.1349 42.9361 41.3223 42.7823 41.5416 42.6914C41.7608 42.6006 42.0021 42.5769 42.2349 42.6232C42.4677 42.6695 42.6815 42.7837 42.8493 42.9516C43.0171 43.1194 43.1314 43.3332 43.1777 43.566C43.224 43.7988 43.2003 44.04 43.1094 44.2593C43.0186 44.4786 42.8648 44.666 42.6675 44.7979C42.4701 44.9297 42.2381 45.0001 42.0008 45.0001C41.6825 45.0001 41.3773 44.8737 41.1523 44.6486C40.9272 44.4236 40.8008 44.1184 40.8008 43.8001V43.8001ZM16.8008 43.8001C16.8008 43.5628 16.8712 43.3308 17.003 43.1334C17.1349 42.9361 17.3223 42.7823 17.5416 42.6914C17.7608 42.6006 18.0021 42.5769 18.2349 42.6232C18.4677 42.6695 18.6815 42.7837 18.8493 42.9516C19.0171 43.1194 19.1314 43.3332 19.1777 43.566C19.224 43.7988 19.2003 44.04 19.1094 44.2593C19.0186 44.4786 18.8648 44.666 18.6675 44.7979C18.4701 44.9297 18.2381 45.0001 18.0008 45.0001C17.6825 45.0001 17.3773 44.8737 17.1523 44.6486C16.9272 44.4236 16.8008 44.1184 16.8008 43.8001V43.8001ZM8.80078 43.8001C8.80078 43.5628 8.87116 43.3308 9.00302 43.1334C9.13488 42.9361 9.32229 42.7823 9.54156 42.6914C9.76083 42.6006 10.0021 42.5769 10.2349 42.6232C10.4677 42.6695 10.6815 42.7837 10.8493 42.9516C11.0171 43.1194 11.1314 43.3332 11.1777 43.566C11.224 43.7988 11.2003 44.04 11.1094 44.2593C11.0186 44.4786 10.8648 44.666 10.6675 44.7979C10.4701 44.9297 10.2381 45.0001 10.0008 45.0001C9.68252 45.0001 9.3773 44.8737 9.15225 44.6486C8.92721 44.4236 8.80078 44.1184 8.80078 43.8001V43.8001Z" fill="#9ED1ED"/>
</g>
<path d="M32.1731 10.5401C31.3731 7.04008 35.1665 4.35428 39.0731 6.19808C48.2731 10.5401 42.8003 16.6001 39.4003 16.2001C36.0003 15.8001 32.9731 14.0401 32.1731 10.5401Z" fill="url(#paint1_linear_516_572)"/>
<path opacity="0.6" d="M35.5 11.1001C35.5 11.1001 42.3 15.5001 44 13.1001C44.1754 14.1023 43.3688 16.9331 42.1 16.9001C38.3046 16.8013 35.5 11.1001 35.5 11.1001Z" fill="black"/>
<path d="M34.4007 32.6C30.1041 34.6642 29.4773 34.5536 20.0007 26.8C5.70073 15.1 19.2007 4.40003 33.7007 10.1C49.4007 17 44.1409 27.9214 34.4007 32.6Z" fill="url(#paint2_linear_516_572)"/>
<path d="M34.8009 40.8003C33.3343 43.2003 26.6675 43.2003 25.2009 40.8003V36.8003C25.2009 36.8003 24.5483 36.8203 24.1009 36.8003C19.4227 36.6003 17.8595 29.0749 18.5937 21.5479C19.1313 16.0355 23.8009 23.6003 31.4009 18.3003C31.1009 24.1003 33.6009 23.5003 34.7009 22.8003C39.7009 20.5003 39.7427 29.9287 34.8009 29.2003V40.8003Z" fill="#F7F1F7"/>
<path d="M25.2002 36.7991C27.8992 36.5987 31.9239 33.7793 31.9239 33.7793C31.9239 33.7793 29.9986 37.8981 25.2004 38.5983L25.2002 36.7991Z" fill="#17021C"/>
<path d="M34.8004 40.292V39C35.1672 39 36.2174 39.8664 36.7576 40.6C38.8928 43.5 36.5244 46.1 34.5928 46.1C32.1556 46.1 30.5404 44.0636 30.0004 43.084C29.4604 44.064 27.8452 46.1 25.408 46.1C23.4764 46.1 21.108 43.5 23.2432 40.6C23.7834 39.8664 24.8336 39 25.2004 39V40.292C25.2004 41.8216 28.5484 42.5296 29.9938 42.595C31.362 42.5296 34.8004 41.8216 34.8004 40.292Z" fill="white"/>
</g>
<defs>
<linearGradient id="paint0_linear_516_572" x1="45.9448" y1="58.2552" x2="30.1106" y2="31.3763" gradientUnits="userSpaceOnUse">
<stop stop-color="#E2834C"/>
<stop offset="1" stop-color="#DF6638"/>
</linearGradient>
<linearGradient id="paint1_linear_516_572" x1="38.1046" y1="5.59912" x2="38.1046" y2="16.2189" gradientUnits="userSpaceOnUse">
<stop stop-color="#1D0024"/>
<stop offset="1" stop-color="#100014"/>
</linearGradient>
<linearGradient id="paint2_linear_516_572" x1="28.7895" y1="8.52148" x2="28.7895" y2="33.7368" gradientUnits="userSpaceOnUse">
<stop stop-color="#1D0024"/>
<stop offset="1" stop-color="#100014"/>
</linearGradient>
<clipPath id="clip0_516_572">
<rect width="60" height="60" rx="30" fill="white"/>
</clipPath>
</defs>
</svg>
