<svg width="44" height="44" viewBox="0 0 44 44" fill="none" xmlns="http://www.w3.org/2000/svg">
<path d="M21.7711 36.6667C21.8933 36.6667 22.0155 36.6362 22.1377 36.5751C22.26 36.514 22.3516 36.4529 22.4127 36.3917L37.4461 21.3584C37.8127 20.9917 38.0804 20.5792 38.2491 20.1209C38.4177 19.6626 38.5015 19.2042 38.5002 18.7459C38.5002 18.257 38.4165 17.7907 38.2491 17.3471C38.0816 16.9034 37.814 16.5141 37.4461 16.1792L29.6544 8.38758C29.3183 8.02091 28.9284 7.75386 28.4847 7.58641C28.0411 7.41897 27.576 7.33464 27.0896 7.33341C26.6312 7.33341 26.1729 7.41775 25.7146 7.58641C25.2562 7.75508 24.8437 8.02214 24.4771 8.38758L23.9729 8.89175L27.3646 12.3292C27.8229 12.757 28.159 13.2459 28.3729 13.7959C28.5868 14.3459 28.6937 14.9265 28.6937 15.5376C28.6937 16.8209 28.2586 17.8983 27.3884 18.7697C26.5182 19.6412 25.4408 20.0763 24.1562 20.0751C23.5451 20.0751 22.9572 19.9681 22.3926 19.7542C21.8279 19.5404 21.3311 19.2195 20.9021 18.7917L17.4627 15.4001L9.4419 23.4209C9.35023 23.5126 9.28179 23.6122 9.23657 23.7197C9.19134 23.8273 9.16812 23.9416 9.1669 24.0626C9.1669 24.307 9.25857 24.5289 9.4419 24.7281C9.62523 24.9273 9.83912 25.0263 10.0836 25.0251C10.2058 25.0251 10.328 24.9945 10.4502 24.9334C10.5725 24.8723 10.6641 24.8112 10.7252 24.7501L15.6752 19.8001C16.0113 19.464 16.4318 19.288 16.9366 19.2721C17.4413 19.2562 17.8765 19.4322 18.2419 19.8001C18.578 20.1362 18.7461 20.564 18.7461 21.0834C18.7461 21.6029 18.578 22.0306 18.2419 22.3667L13.3377 27.3167C13.2461 27.4084 13.1776 27.508 13.1324 27.6156C13.0872 27.7231 13.064 27.8374 13.0627 27.9584C13.0627 28.2029 13.1544 28.4167 13.3377 28.6001C13.5211 28.7834 13.735 28.8751 13.9794 28.8751C14.1016 28.8751 14.2238 28.8445 14.3461 28.7834C14.4683 28.7223 14.56 28.6612 14.6211 28.6001L19.5711 23.6959C19.9072 23.3598 20.3276 23.1838 20.8324 23.1679C21.3372 23.152 21.7723 23.328 22.1377 23.6959C22.4738 24.032 22.6419 24.4598 22.6419 24.9792C22.6419 25.4987 22.4738 25.9265 22.1377 26.2626L17.2336 31.2126C17.1419 31.2737 17.0735 31.3654 17.0282 31.4876C16.983 31.6098 16.9598 31.732 16.9586 31.8542C16.9586 32.0987 17.0502 32.3126 17.2336 32.4959C17.4169 32.6792 17.6308 32.7709 17.8752 32.7709C17.9975 32.7709 18.1123 32.7477 18.2199 32.7012C18.3275 32.6548 18.4265 32.5864 18.5169 32.4959L23.4669 27.5917C23.803 27.2556 24.2235 27.0796 24.7282 27.0637C25.233 27.0479 25.6681 27.2239 26.0336 27.5917C26.3697 27.9279 26.5377 28.3556 26.5377 28.8751C26.5377 29.3945 26.3697 29.8223 26.0336 30.1584L21.0836 35.1084C20.9919 35.2001 20.9235 35.2997 20.8782 35.4072C20.833 35.5148 20.8098 35.6291 20.8086 35.7501C20.8086 35.9945 20.9082 36.2084 21.1074 36.3917C21.3066 36.5751 21.5278 36.6667 21.7711 36.6667ZM21.7252 40.3334C20.5947 40.3334 19.5943 39.9594 18.7241 39.2114C17.8538 38.4634 17.3417 37.5235 17.1877 36.3917C16.1488 36.239 15.278 35.8112 14.5752 35.1084C13.8725 34.4056 13.4447 33.5348 13.2919 32.4959C12.253 32.3431 11.3901 31.908 10.7032 31.1906C10.0163 30.4731 9.5959 29.6096 9.4419 28.6001C8.28079 28.4473 7.33357 27.9431 6.60023 27.0876C5.8669 26.232 5.50023 25.2237 5.50023 24.0626C5.50023 23.4515 5.61512 22.8636 5.8449 22.2989C6.07468 21.7342 6.40284 21.2374 6.8294 20.8084L14.8502 12.7876C15.553 12.0848 16.4165 11.7334 17.4407 11.7334C18.465 11.7334 19.3278 12.0848 20.0294 12.7876L23.4669 16.2251C23.528 16.3167 23.6197 16.3858 23.7419 16.4322C23.8641 16.4787 23.9863 16.5013 24.1086 16.5001C24.3836 16.5001 24.6127 16.4164 24.7961 16.2489C24.9794 16.0815 25.0711 15.8596 25.0711 15.5834C25.0711 15.4612 25.0478 15.339 25.0014 15.2167C24.955 15.0945 24.8865 15.0029 24.7961 14.9417L18.2419 8.38758C17.9058 8.02091 17.5165 7.75386 17.0741 7.58641C16.6316 7.41897 16.1653 7.33464 15.6752 7.33341C15.2169 7.33341 14.7586 7.41775 14.3002 7.58641C13.8419 7.75508 13.4294 8.02214 13.0627 8.38758L6.60023 14.8959C6.17245 15.3237 5.8669 15.8279 5.68357 16.4084C5.50023 16.989 5.4544 17.5695 5.54607 18.1501C5.63773 18.6695 5.53079 19.1279 5.22523 19.5251C4.91968 19.9223 4.50718 20.1515 3.98773 20.2126C3.46829 20.2737 3.00995 20.1588 2.61273 19.8679C2.21551 19.577 1.98634 19.1725 1.92523 18.6542C1.7419 17.4931 1.82623 16.3552 2.17823 15.2406C2.53023 14.1259 3.1334 13.1402 3.98773 12.2834L10.4502 5.82091C11.1836 5.11814 12.0012 4.58341 12.9032 4.21675C13.8052 3.85008 14.7292 3.66675 15.6752 3.66675C16.6212 3.66675 17.5458 3.85008 18.4491 4.21675C19.3523 4.58341 20.1541 5.11814 20.8544 5.82091L21.3586 6.32508L21.8627 5.82091C22.5961 5.11814 23.4137 4.58341 24.3157 4.21675C25.2177 3.85008 26.1417 3.66675 27.0877 3.66675C28.0337 3.66675 28.9583 3.85008 29.8616 4.21675C30.7648 4.58341 31.5666 5.11814 32.2669 5.82091L40.0127 13.5667C40.7155 14.2695 41.2502 15.0792 41.6169 15.9959C41.9836 16.9126 42.1669 17.8445 42.1669 18.7917C42.1669 19.739 41.9836 20.6636 41.6169 21.5656C41.2502 22.4676 40.7155 23.2694 40.0127 23.9709L24.9794 38.9584C24.5516 39.3862 24.0554 39.7223 23.4907 39.9667C22.9261 40.2112 22.3376 40.3334 21.7252 40.3334Z" fill="#162055"/>
</svg>
