<?xml version="1.0" encoding="UTF-8"?>
<svg id="Livello_1" xmlns="http://www.w3.org/2000/svg" version="1.1" viewBox="0 0 187 25">
  <!-- Generator: Adobe Illustrator 29.0.1, SVG Export Plug-In . SVG Version: 2.1.0 Build 192)  -->
  <defs>
    <style>
      .st0 {
        fill: #080401;
      }
    </style>
  </defs>
  <g>
    <path class="st0" d="M9.5,10.8l-.8,1.7c-1.3,2.6-2.5,5.1-3.9,7.6,2.4-1.3,4.9-2.7,7.5-3.9l1.7-.8,3.3,3.3-14,6.3-3.3-3.3L6.2,7.4l3.3,3.4Z"/>
    <path class="st0" d="M17.3,18.7l.7-1.7c1.3-2.6,2.5-5.1,3.9-7.6-2.4,1.3-4.9,2.7-7.5,3.9l-1.7.8-3.3-3.3,14-6.3,3.3,3.3-6.2,14.2-3.2-3.3Z"/>
  </g>
  <g>
    <path class="st0" d="M44,6.4h5.1l-5.9,16.7h-5.9l-5.8-16.7h5.4l.9,2.5c.4,1.6.9,3.2,1.3,4.7.4,1.5.8,2.7,1,3.6s.4,1.4.4,1.6c0-.2.2-.8.4-1.6.2-.9.6-2,1-3.6.4-1.5.9-3.1,1.3-4.7l.8-2.5Z"/>
    <rect class="st0" x="50.5" y="6.4" width="5" height="16.7"/>
    <rect class="st0" x="50.6" y=".2" width="4.7" height="4.3"/>
    <path class="st0" d="M59.5,22.2c-1.3-.9-2-2.4-2.1-4.4h4.8c0,.9.4,1.5.8,1.9s1.2.6,2.3.6c1.8,0,2.8-.5,2.8-1.6s-.2-.9-.6-1.2c-.4-.3-1.1-.5-2.2-.7l-2.1-.4c-3.7-.6-5.5-2.3-5.5-5.1s.6-3,1.9-3.9c1.2-1,3-1.4,5.4-1.4,4.9,0,7.5,1.9,7.6,5.7h-4.6c0-1.6-1-2.4-3-2.4s-2.5.5-2.5,1.6.2.8.6,1.1c.4.3,1,.5,1.8.6l2.5.4c2,.3,3.4.9,4.4,1.7s1.4,2,1.4,3.5-.7,3.1-2.1,4-3.3,1.4-5.8,1.4-4.6-.5-5.8-1.4Z"/>
    <path class="st0" d="M91.2,16.2h-12.2c.2,1.1.6,2,1.2,2.6.7.6,1.5.9,2.5.9,1.6,0,2.7-.6,3.3-1.9h4.7c-.3,1.8-1.3,3.2-2.7,4.2s-3.2,1.5-5.2,1.5-4.6-.8-6.2-2.4-2.4-3.7-2.4-6.4.8-4.8,2.3-6.4c1.6-1.5,3.6-2.3,6.2-2.3s4.6.8,6.2,2.5c1.5,1.7,2.3,3.9,2.3,6.7v1ZM79.1,13h7.3c-.2-1-.6-1.8-1.2-2.4-.6-.6-1.5-.9-2.5-.9-2.1,0-3.3,1.1-3.6,3.3Z"/>
    <path class="st0" d="M104.1,6.2v4.6h-1.3c-2.9,0-4.4,1.5-4.4,4.5v7.8h-5V6.4h4.8v3.1c.8-2.2,2.3-3.4,4.7-3.4s.6,0,1.2,0Z"/>
  </g>
  <g>
    <path class="st0" d="M108.5,22c-1.2-1-1.8-2.3-1.9-4.2h1.8c.2,2.7,1.9,4,5,4s4.6-1.1,4.6-3.2-.3-1.5-.9-2-1.7-.9-3.1-1.1l-1.7-.3c-1.8-.3-3.1-.9-3.9-1.6-.8-.8-1.3-1.8-1.3-3.1s.5-2.5,1.6-3.4c1-.8,2.5-1.2,4.3-1.2,4.2,0,6.4,1.7,6.5,5.2h-1.8c0-1.2-.5-2.1-1.2-2.7-.7-.6-1.9-.9-3.4-.9s-2.3.3-3,.8c-.7.5-1.1,1.2-1.1,2.2s.3,1.5.9,2,1.6.8,3,1.1l1.7.3c1.9.3,3.3.9,4.1,1.6.8.7,1.3,1.8,1.3,3.1s-.6,2.8-1.7,3.6c-1.1.8-2.7,1.2-4.7,1.2-2.2.1-3.9-.4-5.1-1.4Z"/>
    <path class="st0" d="M129.1,8h-3.8v11.6c0,1.3.8,2,2.3,2h1.5v1.6c-.6.1-1.2.1-1.7.1-2.6,0-3.9-1.1-3.9-3.4v-11.9h-2.8v-1.6h2.8V1.6h1.8v4.7h3.8v1.7Z"/>
    <path class="st0" d="M142.9,6.4h1.8v16.7h-1.7v-3.1c-.5,1.1-1.3,2-2.2,2.6-1,.6-2,.9-3.3.9s-3.3-.5-4.3-1.6-1.5-2.6-1.5-4.5V6.4h1.8v10.9c0,3.1,1.5,4.6,4.4,4.6s2.6-.5,3.6-1.6c.9-1.1,1.4-2.6,1.4-4.5V6.4Z"/>
    <path class="st0" d="M161.1,0h1.8v23.1h-1.7v-3.3c-1.3,2.4-3.3,3.7-6,3.7s-4.1-.8-5.4-2.4c-1.4-1.6-2-3.7-2-6.4s.7-4.8,2-6.4c1.3-1.6,3.1-2.4,5.4-2.4s4.6,1.2,5.9,3.5V0ZM155.4,21.8c1.7,0,3.1-.6,4.2-1.9,1-1.3,1.6-3,1.6-5.2s-.5-3.9-1.6-5.2c-1.1-1.3-2.5-1.9-4.2-1.9s-3.2.6-4.2,1.9-1.6,3.1-1.6,5.3.5,3.9,1.6,5.1c1.1,1.3,2.5,1.9,4.2,1.9Z"/>
    <path class="st0" d="M166.7,3.8V.8h1.9v3h-1.9ZM166.8,23.1V6.4h1.8v16.7h-1.8Z"/>
    <path class="st0" d="M173.8,21c-1.4-1.6-2.1-3.7-2.1-6.3s.7-4.8,2.1-6.4c1.4-1.6,3.2-2.4,5.5-2.4s4.1.8,5.6,2.4c1.4,1.6,2.1,3.7,2.1,6.4s-.7,4.7-2.1,6.3c-1.4,1.6-3.3,2.4-5.6,2.4-2.3.1-4.1-.7-5.5-2.4ZM179.3,21.8c1.8,0,3.2-.6,4.2-1.9s1.6-3,1.6-5.2-.5-3.9-1.6-5.2c-1.1-1.3-2.5-1.9-4.2-1.9s-3.1.6-4.2,1.9c-1,1.3-1.6,3-1.6,5.2s.5,3.9,1.6,5.2c1.1,1.3,2.5,1.9,4.2,1.9Z"/>
  </g>
</svg>
