<svg width="16" height="16" viewBox="0 0 16 16" fill="none" xmlns="http://www.w3.org/2000/svg">
<g clip-path="url(#clip0_490_596)">
<path d="M13.601 2.32606C12.8676 1.58555 11.9941 0.998501 11.0314 0.599149C10.0688 0.199797 9.03621 -0.00386082 7.994 5.5425e-05C3.627 5.5425e-05 0.068 3.55805 0.064 7.92605C0.064 9.32505 0.43 10.6861 1.121 11.8911L0 16.0001L4.204 14.8981C5.36649 15.5323 6.66975 15.8641 7.994 15.8631H7.998C12.366 15.8631 15.924 12.3051 15.928 7.93305C15.9289 6.89111 15.7237 5.85929 15.3241 4.897C14.9246 3.9347 14.3396 3.06095 13.601 2.32606ZM7.994 14.5211C6.81317 14.5201 5.65422 14.2024 4.638 13.6011L4.398 13.4571L1.904 14.1111L2.57 11.6781L2.414 11.4271C1.75381 10.3774 1.40465 9.16208 1.407 7.92205C1.407 4.29605 4.364 1.33806 7.998 1.33806C8.86374 1.3365 9.72122 1.50633 10.521 1.83775C11.3208 2.16916 12.0471 2.65561 12.658 3.26905C13.2709 3.8802 13.7568 4.6066 14.0877 5.40638C14.4186 6.20616 14.5879 7.06352 14.586 7.92905C14.582 11.5681 11.625 14.5211 7.994 14.5211ZM11.609 9.58705C11.412 9.48805 10.439 9.00905 10.256 8.94105C10.074 8.87605 9.941 8.84205 9.811 9.04005C9.678 9.23705 9.298 9.68605 9.184 9.81505C9.07 9.94805 8.952 9.96305 8.754 9.86505C8.557 9.76505 7.918 9.55705 7.162 8.88005C6.572 8.35505 6.177 7.70505 6.059 7.50805C5.945 7.31005 6.048 7.20405 6.147 7.10505C6.234 7.01705 6.344 6.87305 6.443 6.75905C6.543 6.64505 6.576 6.56105 6.641 6.42905C6.706 6.29505 6.675 6.18105 6.626 6.08205C6.576 5.98305 6.181 5.00605 6.014 4.61205C5.854 4.22305 5.691 4.27705 5.569 4.27205C5.455 4.26505 5.322 4.26505 5.189 4.26505C5.08857 4.26761 4.98976 4.29087 4.89873 4.33337C4.80771 4.37587 4.72643 4.4367 4.66 4.51205C4.478 4.71005 3.969 5.18905 3.969 6.16605C3.969 7.14305 4.679 8.08205 4.779 8.21505C4.877 8.34805 6.173 10.3471 8.162 11.2071C8.632 11.4121 9.002 11.5331 9.291 11.6251C9.766 11.7771 10.195 11.7541 10.537 11.7051C10.917 11.6471 11.708 11.2251 11.875 10.7621C12.039 10.2981 12.039 9.90205 11.989 9.81905C11.94 9.73505 11.807 9.68605 11.609 9.58705Z" fill="#AA81FF"/>
</g>
<defs>
<clipPath id="clip0_490_596">
<rect width="16" height="16" fill="white"/>
</clipPath>
</defs>
</svg>
